<?xml version="1.0" encoding="utf-8"?>
<!-- Generator: Adobe Illustrator 25.0.0, SVG Export Plug-In . SVG Version: 6.00 Build 0)  -->
<svg version="1.1" id="Capa_1" xmlns="http://www.w3.org/2000/svg" xmlns:xlink="http://www.w3.org/1999/xlink" x="0px" y="0px"
	 viewBox="0 0 455 455" style="enable-background:new 0 0 455 455;" xml:space="preserve">
<style type="text/css">
	.st0{fill:#FFFFFF;}
</style>
<g>
	<path class="st0" d="M317.5,0h-180C111.3,0,90,21.3,90,47.5v360c0,26.2,21.3,47.5,47.5,47.5h180c26.2,0,47.5-21.3,47.5-47.5v-360
		C365,21.3,343.7,0,317.5,0z M105,105h245v245H105V105z M137.5,15h180c17.9,0,32.5,14.6,32.5,32.5V90H105V47.5
		C105,29.6,119.6,15,137.5,15z M317.5,440h-180c-17.9,0-32.5-14.6-32.5-32.5V365h245v42.5C350,425.4,335.4,440,317.5,440z"/>
	<path class="st0" d="M227.5,387.5c-8.3,0-15,6.7-15,15s6.7,15,15,15s15-6.7,15-15S235.8,387.5,227.5,387.5z"/>
	<path class="st0" d="M196.6,60h61.9c4.1,0,7.5-3.4,7.5-7.5s-3.4-7.5-7.5-7.5h-61.9c-4.1,0-7.5,3.4-7.5,7.5S192.4,60,196.6,60z"/>
	<path class="st0" d="M272.5,237c-4.1,0-7.5,3.4-7.5,7.5V265h-20.6c-4.1,0-7.5,3.4-7.5,7.5s3.4,7.5,7.5,7.5h28.1
		c4.1,0,7.5-3.4,7.5-7.5v-28C280,240.4,276.6,237,272.5,237z"/>
	<path class="st0" d="M272.5,175h-28.1c-4.1,0-7.5,3.4-7.5,7.5s3.4,7.5,7.5,7.5H265v20.8c0,4.1,3.4,7.5,7.5,7.5s7.5-3.4,7.5-7.5
		v-28.3C280,178.4,276.6,175,272.5,175z"/>
	<path class="st0" d="M210.6,175h-28.1c-4.1,0-7.5,3.4-7.5,7.5v28.3c0,4.1,3.4,7.5,7.5,7.5s7.5-3.4,7.5-7.5V190h20.6
		c4.1,0,7.5-3.4,7.5-7.5S214.8,175,210.6,175z"/>
	<path class="st0" d="M210.6,265H190v-20.5c0-4.1-3.4-7.5-7.5-7.5s-7.5,3.4-7.5,7.5v28c0,4.1,3.4,7.5,7.5,7.5h28.1
		c4.1,0,7.5-3.4,7.5-7.5S214.8,265,210.6,265z"/>
</g>
</svg>
