<?xml version="1.0" encoding="utf-8"?>
<!-- Generator: Adobe Illustrator 25.0.0, SVG Export Plug-In . SVG Version: 6.00 Build 0)  -->
<svg version="1.1" id="Layer_1" xmlns="http://www.w3.org/2000/svg" xmlns:xlink="http://www.w3.org/1999/xlink" x="0px" y="0px"
	 viewBox="0 0 512 512" style="enable-background:new 0 0 512 512;" xml:space="preserve">
<style type="text/css">
	.st0{fill:#FFFFFF;}
</style>
<g transform="translate(1 1)">
	<g>
		<g>
			<path class="st0" d="M455.8,440.4H348.2c27.4-11,48.4-26.5,64.4-45.4c65.2-9.9,94.5-63.8,94.5-113.5c0-35.2-19.6-64.7-45-69.8
				c0-0.3,0-0.5,0-0.8c0-4.4-1.8-8.8-5.3-12.4c-3.5-3.5-7.9-5.3-12.4-5.3H38.3c-4.4,0-8.8,1.8-12.4,5.3c-3.5,3.5-5.3,7.9-5.3,12.4
				c0.7,94.9,17.2,190.9,113.8,229.5H25.9c-12.4,0-23,9.7-23,23c0,10.6,7.1,18.5,19.4,21.2l112.1,7.9c2.6,0,5.3,1.8,6.2,4.4
				c4.4,8.8,13.2,14.1,23,14.1h146.5c9.7,0,18.5-5.3,22.1-14.1c0.9-2.6,3.5-4.4,6.2-4.4l120.1-7.9h0.9c12.4-2.6,19.4-10.6,19.4-21.2
				C478.8,451,469.1,440.4,455.8,440.4z M462,230.3c15,5.3,26.5,26.5,26.5,51.2c0,34.4-15.9,75.9-59.9,90.9c0.7-1.3,1.5-2.5,2.2-3.8
				C455.2,326.1,460.3,274.8,462,230.3z M38.3,210.9h406.1c-0.9,119.2-26.5,229.5-203,229.5S39.2,330,38.3,210.9z M457.6,466.9
				l-118.3,7.9c-8.8,0.9-16.8,6.2-21.2,14.1c-1.8,2.6-4.4,4.4-7.1,4.4H163.6c-2.6,0-5.3-1.8-7.1-4.4c-4.4-7.9-12.4-13.2-21.2-14.1
				L25,466.9c-4.4-0.9-4.4-2.6-4.4-3.5c0-2.6,2.6-5.3,5.3-5.3h430.8c2.6,0,5.3,2.6,5.3,5.3C462,464.2,462,466,457.6,466.9z"/>
			<path class="st0" d="M235.1,72.3c-13.2,13.2-20.3,26.5-20.3,40.6s7.1,28.2,20.3,42.4c1.8,1.8,3.5,2.6,6.2,2.6s4.4-0.9,6.2-2.6
				c3.5-3.5,3.5-8.8,0-12.4c-9.7-10.6-15-20.3-15-30s5.3-19.4,15-28.2c13.2-12.4,20.3-26.5,20.3-40.6s-6.2-29.1-20.3-42.4
				c-3.5-3.5-8.8-3.5-12.4,0c-3.5,3.5-3.5,8.8,0,12.4c9.7,10.6,15,20.3,15,30S244.8,63.4,235.1,72.3z"/>
			<path class="st0" d="M311.9,112.9c0,14.1,7.1,28.2,20.3,42.4c1.8,1.8,3.5,2.6,6.2,2.6c1.8,0,4.4-0.9,5.3-2.6
				c3.5-3.5,3.5-8.8,0-12.4c-9.7-10.6-15-20.3-15-30s5.3-19.4,15-28.2c14.1-12.4,21.2-26.5,21.2-40.6c0-15-6.2-29.1-20.3-42.4
				c-3.5-3.5-8.8-3.5-12.4,0s-3.5,8.8,0,12.4c9.7,10.6,15,20.3,15,30s-5.3,18.5-15,28.2C319,85.5,311.9,98.8,311.9,112.9z"/>
			<path class="st0" d="M126.6,112.9c0,14.1,7.1,28.2,20.3,42.4c1.8,1.8,3.5,2.6,6.2,2.6c1.8,0,4.4-0.9,5.3-2.6
				c3.5-3.5,3.5-8.8,0-12.4c-9.7-10.6-15-20.3-15-30s5.3-19.4,15-28.2c14.1-12.4,21.2-26.5,21.2-40.6c0-15-6.2-29.1-20.3-42.4
				c-3.5-3.5-8.8-3.5-12.4,0c-3.5,3.5-3.5,8.8,0,12.4c9.7,10.6,15,20.3,15,30s-5.3,18.5-15,28.2C133.6,85.5,126.6,98.8,126.6,112.9z
				"/>
			<path class="st0" d="M190.1,396.2c-62.7-10.6-94.5-45.9-107.7-116.5c-0.9-4.4-6.2-7.9-10.6-7.1s-7.9,6.2-7.1,10.6
				c14.1,78.6,52.1,118.3,121.8,130.6c0.9,0,0.9,0,1.8,0c4.4,0,7.9-2.6,8.8-7.1C198.1,401.5,194.5,397.1,190.1,396.2z"/>
		</g>
	</g>
</g>
</svg>
