<?xml version="1.0" encoding="utf-8"?>
<!-- Generator: Adobe Illustrator 25.0.0, SVG Export Plug-In . SVG Version: 6.00 Build 0)  -->
<svg version="1.1" id="Capa_1" xmlns="http://www.w3.org/2000/svg" xmlns:xlink="http://www.w3.org/1999/xlink" x="0px" y="0px"
	 viewBox="0 0 455 455" style="enable-background:new 0 0 455 455;" xml:space="preserve">
<style type="text/css">
	.st0{fill:#FFFFFF;}
</style>
<g>
	<path class="st0" d="M417.5,120H313.4l-11.3-45.2C297.2,55.3,277.6,40,257.5,40h-60c-20.1,0-39.7,15.3-44.6,34.8L141.6,120H130
		V97.5c0-4.1-3.4-7.5-7.5-7.5h-60c-4.1,0-7.5,3.4-7.5,7.5V120H37.5C16.8,120,0,136.8,0,157.5v220C0,398.2,16.8,415,37.5,415h380
		c20.7,0,37.5-16.8,37.5-37.5v-220C455,136.8,438.2,120,417.5,120z M70,105h45v15H70V105z M37.5,135h110c3.4,0,6.4-2.3,7.3-5.7
		l12.7-50.9c3.2-12.7,16.9-23.4,30-23.4h60c13.1,0,26.8,10.7,30,23.4l12.7,50.9c0.8,3.3,3.8,5.7,7.3,5.7h110
		c12.4,0,22.5,10.1,22.5,22.5V180H305.8c-20.8-18.6-48.3-30-78.3-30s-57.5,11.4-78.3,30H15v-22.5C15,145.1,25.1,135,37.5,135z
		 M227.5,370C171,370,125,324,125,267.5S171,165,227.5,165S330,211,330,267.5S284,370,227.5,370z M15,195h120.1
		c-10.3,13.1-17.8,28.3-21.8,45H99.3c-15.2,0-27.5,12.3-27.5,27.5c0,15.2,12.3,27.5,27.5,27.5h13.9c4,16.7,11.6,31.9,21.8,45H15V195
		z M110.7,280H99.3c-6.9,0-12.5-5.6-12.5-12.5S92.4,255,99.3,255h11.3c-0.4,4.1-0.7,8.3-0.7,12.5S110.2,275.9,110.7,280z M417.5,400
		h-380C25.1,400,15,389.9,15,377.5V355h134.2c20.8,18.6,48.3,30,78.3,30s57.5-11.4,78.3-30h51.7c4.1,0,7.5-3.4,7.5-7.5
		s-3.4-7.5-7.5-7.5h-37.6c15.7-20,25.1-45.2,25.1-72.5s-9.4-52.5-25.1-72.5H440v145h-52.5c-4.1,0-7.5,3.4-7.5,7.5s3.4,7.5,7.5,7.5
		H440v22.5C440,389.9,429.9,400,417.5,400z"/>
	<path class="st0" d="M178.4,135h98.2c2.3,0,4.5-1.1,5.9-2.9c1.4-1.8,1.9-4.2,1.4-6.4l-12.5-50c-0.8-3.3-3.8-5.7-7.3-5.7h-73.2
		c-3.4,0-6.4,2.3-7.3,5.7l-12.5,50c-0.6,2.2-0.1,4.6,1.4,6.4C173.9,133.9,176.1,135,178.4,135z M196.8,85h61.4l8.7,35H188L196.8,85z
		"/>
	<path class="st0" d="M227.5,190c-42.7,0-77.5,34.8-77.5,77.5s34.8,77.5,77.5,77.5s77.5-34.8,77.5-77.5S270.2,190,227.5,190z
		 M227.5,330c-34.5,0-62.5-28-62.5-62.5s28-62.5,62.5-62.5s62.5,28,62.5,62.5S262,330,227.5,330z"/>
	<path class="st0" d="M271.2,249c-1.6-3.8-6-5.6-9.8-4c-3.8,1.6-5.6,6-4,9.8c5.2,12.3,2.5,26.3-6.9,35.7c-6.1,6.1-14.3,9.5-23,9.5
		s-16.9-3.4-23-9.5c-2.9-2.9-7.7-2.9-10.6,0s-2.9,7.7,0,10.6c9,9,20.9,13.9,33.6,13.9c12.7,0,24.6-4.9,33.6-13.9
		C274.8,287.4,278.8,266.9,271.2,249z"/>
	<path class="st0" d="M199.2,246.7c1.9,0,3.8-0.7,5.3-2.2c9.4-9.4,23.4-12.1,35.7-6.9c3.8,1.6,8.2-0.2,9.8-4s-0.2-8.2-4-9.8
		c-17.9-7.6-38.4-3.6-52.1,10.1c-2.9,2.9-2.9,7.7,0,10.6C195.4,246,197.3,246.7,199.2,246.7z"/>
</g>
</svg>
