<?xml version="1.0" encoding="utf-8"?>
<!-- Generator: Adobe Illustrator 25.0.0, SVG Export Plug-In . SVG Version: 6.00 Build 0)  -->
<svg version="1.1" id="Capa_1" xmlns="http://www.w3.org/2000/svg" xmlns:xlink="http://www.w3.org/1999/xlink" x="0px" y="0px"
	 viewBox="0 0 512 512" style="enable-background:new 0 0 512 512;" xml:space="preserve">
<style type="text/css">
	.st0{fill:#FFFFFF;}
</style>
<g>
	<g>
		<g>
			<path class="st0" d="M511.9,356.4c-0.3-16.1-0.6-32.1-0.8-48.2c-0.6-33.7-0.2-67.3,0-101c0.1-16.1,0.1-32.2,0.1-48.3
				c0-14.4,0.8-29.1-1.4-43.4c-1.9-12.3-6.7-24.8-16.7-32.7c-9.7-7.6-22-10.1-34-10.8c-10-0.6-20.2-0.4-30.3-0.2
				c-30-0.1-60-0.9-90-1.1c-33.1-0.2-66.3-0.4-99.4-0.6c-33.1-0.3-66.3-0.5-99.4-0.9C122.9,69.1,106,68.9,89,69
				c-13.4,0.1-26.9-0.1-40.2,2.2c-11.9,2.1-23.5,6.9-31.5,16.3C9.1,97,5.4,108.8,3.9,121.1c-1.6,13.5-1.3,27.2-1.4,40.7
				c-0.1,16.8-0.4,33.6-0.6,50.5c-0.4,32.9-1.2,65.8-1.5,98.7c-0.1,16.8-0.3,33.6-0.4,50.5c-0.1,13.4-0.3,27.2,3.7,40.1
				c7.8,25.5,31.5,36.1,56.2,39.4c30.5,4.1,61.9,4,92.6,5.3c66.7,2.7,133.6,3.3,200.4,2.2c32.1-0.5,64.7,0.1,96.7-2.5
				c13.6-1.1,27.3-4,38.3-12.7c9.8-7.8,16.3-19.2,19.9-31.1C512.2,387.4,512.2,371.7,511.9,356.4z M376.9,82.5
				c9.1,0.1,18.2,0.3,27.2,0.4c3.5,0,6.9,0.1,10.4,0.1c-0.5,23.4-1.2,46.8-1.3,70.2c-0.1,12.1-0.1,24.2-0.2,36.4
				c0,10.1-0.6,20.6,0.3,30.7c-5.6-2.5-11.7-3.9-17.9-3.7c-7.4,0.2-14.3,2.7-20.2,6.6c1-23.1,1.5-46.3,2.1-69.5
				C378,130.1,379.4,106.1,376.9,82.5z M368.2,363.3c0.1,24.1-0.2,48.3,0.5,72.5c-56.6,1.9-113.4,2.8-170,1.5
				c-31.2-0.7-62.4-2-93.5-4.1c-14-0.9-28.2-1.6-42.1-3.7c-11.2-1.7-22.8-4.4-32.2-11.2c-21.2-15.4-17.7-46.9-17.8-69.9
				c-0.1-31.5-0.2-62.9-0.7-94.4c-0.5-31.4-0.9-62.9-1-94.4c-0.1-23.1-3.2-55.4,20.7-68.6c10.5-5.8,22.5-7.4,34.3-7.8
				c14.2-0.5,28.4-0.1,42.5-0.3c31.7-0.5,63.3-1.2,95-1.7c23.2-0.4,46.4-0.6,69.6-0.9c32.9,0.7,65.9,1.5,98.8,2
				c-3.6,23.1-3.4,46.9-3.9,70.2c-0.6,25.5-1.4,51-1.4,76.6c0,0.4,0.1,0.8,0.1,1.1c-1.3,1.5-2.5,3-3.6,4.6
				c-8.2-7.1-16.6-14.1-25.2-20.8c-6.4-5.1-14.1-10.5-22.2-5.2c-6.2,4.1-7.6,12.4-8,19.3c-0.6,11.2-0.5,22.6,0.3,33.9
				c0.7,11,1.9,21.9,3.8,32.8c1.4,7.9,2.3,19.1,11.9,21.1c8.8,1.9,17.3-5.8,23.6-10.8c7-5.7,13.4-12,19.2-18.9c0.6,0.7,1.3,1.4,2,2
				C367.9,313.2,368,338.3,368.2,363.3z M361.1,278.2c-4.7,5.1-9.6,10-14.9,14.5c-2.7,2.3-5.4,4.5-8.2,6.7c-2.4,1.9-6,5.3-9.1,6.1
				c-5.1,1.2-5.3-3.2-6.1-7c-0.9-4.1-1.7-8.3-2.4-12.5c-1.4-8.3-2.4-16.6-2.9-25c-0.5-8.1-0.7-16.2-0.3-24.3
				c0.2-4.7-0.4-14.9,3.9-18.4c4.6-3.8,14.6,5.9,18.5,8.5c6.8,4.7,13.8,9.1,20.8,13.5c-2.1,4.1-3.5,8.6-4.1,13.2
				c-0.1,0.4-0.1,0.7-0.2,1.1C355.1,262.9,357.1,271.1,361.1,278.2z M415.3,362.7c-0.5,23.7-1.7,47.5-1,71.2
				c-8.7,0.4-17.5,0.7-26.2,1.1c-3.2,0.1-6.4,0.2-9.6,0.4c0-24-1-48.1-1.5-72.1c-0.5-23.5-1.1-47.1-2.6-70.5
				c6.1,4.2,13.2,7,20.6,7.5c8,0.6,15.6-1.6,22.3-5.6C416.6,317.3,415.8,340,415.3,362.7z M402.7,288.9c-17,4.2-34.7-9.8-37.4-26.5
				c-6.1-36.9,51.9-47.9,61.8-11.8C431.7,267.4,419.1,284.9,402.7,288.9z M499.9,354.3c-0.1,25-0.6,57.5-25.6,71.4
				c-11.4,6.3-25,6.8-37.7,7.3c-3.8,0.2-7.6,0.3-11.4,0.5c0.8-23.5-0.2-47.2-0.5-70.8c-0.3-24.1-1-48.2-1.5-72.3
				c0.8-0.7,1.6-1.4,2.4-2.2c4.2,5.1,8.9,9.8,13.9,14.1c5.6,4.9,11.8,10.5,18.5,13.7c6,2.8,12.8,2.1,16.5-3.7
				c4-6.2,4.2-15.3,5.1-22.4c2.4-17.8,3.4-35.8,2.6-53.8c-0.4-10.4,1.8-33.6-14.4-33.1c-7.9,0.2-15.2,7.7-20.7,12.6
				c-6.3,5.5-11.7,11.6-16.3,18.4c-2.3-3-5-5.8-8-8.2c1.6-11.5,0.7-23.6,0.6-35.2c-0.2-12.5-0.4-25-0.7-37.5
				c-0.4-23.4-1.4-46.8-2.2-70.1c10.1,0.1,20.2,0.2,30.3,0.8c11.1,0.6,23.5,1.9,32.5,9c9.7,7.6,12.7,19.7,13.7,31.3
				c1.2,13.7,0.9,27.6,1.1,41.4C498.9,228.5,500.2,291.3,499.9,354.3z M433.8,238.9c5.5-4.8,11.1-9.5,16.9-14
				c3-2.3,15.4-13.4,18.9-10.3c1.8,1.6,1.8,6.7,2,8.7c0.4,3.9,0.8,7.8,0.9,11.8c0.3,8.2,0.3,16.5-0.1,24.7c-0.4,7.9-1,15.7-2,23.5
				c-0.5,4.2-1.2,8.3-1.9,12.5c-0.3,2-0.6,9.4-2.5,10.9c-3.5,2.6-15.5-9.3-17.9-11.5c-5.5-4.9-10.5-10.3-15.5-15.6
				c3.9-6.4,6.3-13.8,6.3-21.3C438.9,251.2,437,244.6,433.8,238.9z"/>
		</g>
	</g>
	<g>
		<g>
			<path class="st0" d="M254.1,319.6c-3.9-10.5-15.4-10.6-24.9-11.7c-12.9-1.5-25.9-2.8-38.8-3.5c-0.9-0.1-1.9-0.1-2.8-0.1
				c0.2-15.3,0.1-31.7-3-46.7c-1.2-6.1-5.4-7.1-11-7.2c-2.1,0-4.2-0.1-6.2-0.1c-0.8-3.1-1.2-6.3-1.2-9.4c9.9,0.9,18.6-6.2,20-16.2
				c1.5-10.6-4.2-39.2-19.9-35.9c-9.7,2-17.9,17.8-18.9,26.8c-1.1,9.8,4.1,20.3,13.4,24.1c0,3.5,0.2,7.1,0.6,10.7
				c-4.1-0.1-8.3-0.1-12.5-0.3c-2.6-0.1-4.4,2.1-4.6,4.5c-0.9,16.3-0.6,32.6-0.1,48.9c-9.3-0.5-18.7-1-28-1.4
				c-9.9-0.4-21.2-2.4-30.9,0.2c-8.3,2.3-13.2,9-14.7,17.3c-1.9,10.1-1.9,20.8-2.4,31c-0.5,11.7-0.9,23.5-0.5,35.3
				c0.3,8.1,2.4,16.2,11.1,18.8c4.4,1.3,9.4,1.2,13.9,1.7c6.2,0.6,12.3,1.1,18.5,1.7c11.6,1,23.3,1.8,34.9,2.6
				c23.3,1.5,46.6,2.5,69.9,2.7c9.2,0.1,18.7-0.8,25.4-7.9c5.5-5.8,8.2-13.8,9.7-21.6c2.1-10.8,3.3-21.9,4-32.9
				c0.4-5.3,0.5-10.5,0.4-15.8C255.6,330,255.9,324.5,254.1,319.6z M154.5,212.9c1.6-7.7,6.8-13.7,12.9-18.3c4,6.8,8,13,9.3,21.1
				c0.7,4.3,1.4,10.3-1.9,13.8c-2,2.2-5.1,3.2-8,3.1c0.7-4.3,1.9-8.5,3.6-12.4c1.4-3.4-4.3-5.1-5.7-1.6c-1.6,4.2-2.7,8.3-3.3,12.4
				C155.4,227.6,153.2,219.5,154.5,212.9z M153.3,259c4.4-0.1,8.7-0.2,13.1-0.3c1.8,0,7.7-1.1,9.3-0.2c2.4,1.4,2.1,7.7,2.2,9.9
				c1,11.8,1.3,23.6,1,35.4c-9.5-0.4-19-0.4-28.6-0.2C151.7,288.8,153,273.9,153.3,259z M241.8,363.6c-1.3,14.2-1.3,36.9-19.9,38.2
				c-9.8,0.7-20,0-29.8-0.3c-9.8-0.2-19.7-0.5-29.5-1c-20-0.8-40-2.1-60-3.8c-4.7-0.4-9.4-0.8-14.2-1.3c-4.7-0.5-8.4-0.5-9.4-5.7
				c-1.7-9-0.9-19.2-1.1-28.4c-0.1-5.8-0.1-11.6,0-17.4c4.3,4.7,10.2,8.1,16.6,9.3c6.4,1.2,12.6,0.3,18.5-2.4
				c7.5-3.4,13.9-9.2,21.8-11.7c16-4.9,21.7,15.5,33.5,21.9c12.8,6.9,27.2,4.3,38-4.7c6.9-5.7,15.1-14,23.4-5.8
				c3.7,3.6,7.3,8.2,12.3,9.3C242,361.1,241.9,362.4,241.8,363.6z M243.3,335.2c-0.1,5.1-0.3,10.2-0.5,15.2
				c-4.9-2.3-8.5-8.9-13.3-11.2c-8-4-16.9-0.3-23.4,4.8c-7.9,6.1-14.4,12.8-25.1,11.9c-9.2-0.7-14.8-6.5-20.4-13.2
				c-4.9-5.9-9.9-11.4-17.9-12.6c-9.1-1.3-17.4,3.2-24.6,8.1c-7.7,5.2-15.5,10-25.1,7.7c-5.9-1.4-11.2-4.8-14.8-9.5
				c0-1.3,0.1-2.6,0.1-3.9c0.3-8.5,0.1-19.3,10.9-20.5c10.2-1.1,21.2,0.5,31.5,0.8c11,0.4,22,0.6,33,1c20,0.6,40,1.1,59.9,1.6
				c5.9,0.8,11.8,1.6,17.6,2.6c3.1,0.5,8.4,0.5,10.6,3.1C244.5,324.3,243.3,331.4,243.3,335.2z"/>
		</g>
	</g>
	<g>
		<g>
			<path class="st0" d="M70.6,142.5v-4.6c0-2.7-0.2-4.7-0.6-6.1c-0.7-2.6-2.5-4-5.3-4c-1.2,0-3,0.1-5.3,0.2
				c-2.3,0.2-4.1,0.2-5.2,0.2c-2.6,0-3.3,0.1-3.7,0.1c-1.8,0.4-2.8,1.6-2.8,3.4c0,1.2,0.4,2.5,1.1,4l0.2,0.4l0.4,0.1
				c1.9,0.6,3.7,0.9,5.5,0.9c0.9,0,2.1-0.1,3.8-0.2c0.9-0.1,1.8-0.1,2.4-0.2v9.1c-1.2,2.6-3.2,3.9-6.1,3.9c-4,0-7-1.8-9.1-5.6
				c-1.8-3.2-2.7-7.1-2.7-11.7c0-3.9,0.8-7.5,2.4-10.8c1.9-4,4.4-5.9,7.6-5.9c1.4,0,3.2,0.8,5.3,2.4c3.8,2.8,4,2.8,4.4,2.8
				c2.5,0,5.1-3.1,4.4-5.5c-0.7-2.5-3.4-4.4-5.4-5.8c-2.6-1.9-5.7-2.9-9-2.9c-6.1,0-10.9,3-14.5,9c-3,5-4.5,10.6-4.5,16.9
				c0,6.9,1.7,12.9,4.9,17.8c3.8,5.8,9.2,8.7,15.9,8.7c4.1,0,8.4-1.9,11.3-4.8c1.6-1.6,2.8-3.5,3.6-5.5
				C70.9,146.5,70.6,144.8,70.6,142.5z"/>
		</g>
	</g>
	<g>
		<g>
			<path class="st0" d="M88,150.3c0-9.1,0-16-0.1-20.6c0-7-0.1-11.9-0.2-14.5c4.6-0.3,5.6-2.6,5.6-4.5c0-2.5-1.5-4-4.2-4
				c-1,0-2.5,0.1-4.5,0.2c-1.9,0.1-3.4,0.2-4.3,0.2c-0.1,0-0.3,0-0.6,0c-0.4,0-0.6-0.1-0.8-0.1c-3.2,0-4.6,3.4-3.4,6.1
				c0.8,1.7,2.1,1.4,3.2,2.4c1.2,1.1,0.7,5.3,0.7,7.1c0,3.9,0,6.7,0.1,8.2c0,9.6,0.1,16.2,0.2,19.7c-1.9,0.2-3.8,3.3-3.6,5.1
				c0.6,4.3,6.3,2.9,9.2,3c2.6,0.1,8.1-0.2,8.1-3.8C93.3,153,92.3,150.7,88,150.3z"/>
		</g>
	</g>
	<g>
		<g>
			<path class="st0" d="M108.7,115.6c1,0,2.4,0,4.4-0.1c1.9,0,3.4-0.1,4.3-0.1c0.9,0,2.3,0,4.2,0.1h4.2c1.2,0,2.2-0.4,3.1-1.2
				c0.8-0.8,1.3-1.8,1.3-3.1c0-1.7-0.8-4.6-6.3-4.6c-22,0-23,0.8-23.6,1.3c-1.2,1-1.9,2.7-1.9,4.9c0,4.8,0,11.9,0.1,21.4
				c0.1,9.5,0.1,16.6,0.1,21.4c0,2.1,1.2,3.3,3.2,3.3c6.5,0,5-9.7,5-13.9c0-3,0-6,0-9c1,0,2.5-0.1,4.6-0.2h5.7c0.6,0,1.5,0,2.6,0.1
				c1.2,0.1,2.1,0.1,2.7,0.1c1.1,0,2.1-0.4,2.9-1.2c0.8-0.8,1.2-1.8,1.2-2.9c0-1.3-0.4-2.3-1.2-3.1c-1.2-1.1-3.1-1.6-5.8-1.6h-12.7
				v-11.8C107.4,115.6,108,115.6,108.7,115.6z"/>
		</g>
	</g>
	<g>
		<g>
			<path class="st0" d="M163.8,106.6c-31.9,0-31.9,2.1-31.9,3.8c0,5.4,6.1,5.2,9.8,5.2c0.9,0,2.3,0,4.1-0.1
				c0,12.9,0.1,22.6,0.3,28.6v8.4c0,0.2,0,0.4-0.1,0.7l0,1c0,5.6,6.1,7.1,8,1.5c1.5-4.4,0.4-9.1,0.4-13.6c0,0,0-26.6,0-26.6h11.7
				c1.2,0,2.2-0.4,3.1-1.2c0.8-0.8,1.3-1.8,1.3-3.1C170.4,109.2,169.3,106.7,163.8,106.6z"/>
		</g>
	</g>
	<g>
		<g>
			<path class="st0" d="M223.9,143.9c-1.3,0.1-2.7,0.8-3.7,1.6c-2.4,2-4.1,4.7-7.6,4.7c-3.5,0-6-1.3-7.8-4c-1.6-2.4-2.4-5.5-2.4-9.3
				c0-4.4,1-8.9,3-13.3c2.4-5.3,5.3-7.8,8.9-7.8c1,0,2,0.8,2.9,2.4c1.4,2.4,2.9,3.5,4.5,3.5c1.3,0,2.4-0.5,3.3-1.4
				c0.8-0.9,1.2-2,1.2-3.2c0-0.5-0.1-0.9-0.2-1.3c-2.3-6-6.2-9.1-11.7-9.1c-6.6,0-11.9,3.6-16,10.6c-3.3,5.9-5,12.3-5,19.1
				c0,6.3,1.5,11.6,4.6,15.7c3.4,4.6,8.3,6.9,14.6,6.9c6.9,0,11.7-2.8,14.2-8.2c0.7-1.6,1-2.6,1-3.4
				C227.6,144.6,225.8,143.7,223.9,143.9z"/>
		</g>
	</g>
	<g>
		<g>
			<path class="st0" d="M266,145.5c-1.8-6.9-4.1-14.9-6.8-23.8c-0.6-2.2-1.2-4.4-1.9-6.6c-0.8-2.7-1.7-4.9-2.8-6.5
				c-1.1-1.6-2.4-1.9-3.3-1.9c-1.2,0-2.1,0.1-2.8,0.4c-0.7,0.3-1.4,1-2.1,2l-0.1,0.2c-0.9,2-1.4,3.6-1.7,4.7
				c-1.7,4.8-3,8.5-3.9,10.9c-3.7,10.2-6.5,17.9-8.1,22.9c-2,6-2.3,7.4-2.3,8c0,2.4,1.9,3.1,4,3.2c3.3,0.1,4.5-2.9,5.3-5.5
				c0.3-1,2.5-8.7,3.1-8.7c1.6-0.1,3.9-0.3,6.9-0.6c2.9-0.3,5.2-0.5,6.9-0.5c0.9,3.5,1.5,6.1,1.9,7.8c0.6,3.2,0.8,4,0.9,4.4
				c1,2.6,2.8,3.1,4.1,3.1c1.2,0,2.3-0.4,3.2-1.3c0.9-0.9,1.4-1.9,1.4-3.1C267.9,153.8,267.7,152,266,145.5z M246.1,135.4
				c2-5.5,3.5-9.6,4.5-12.4c1.3,4,2.5,7.9,3.6,11.8C250.9,135,248.2,135.2,246.1,135.4z"/>
		</g>
	</g>
	<g>
		<g>
			<path class="st0" d="M300.8,142.4c-1.6-2.6-2.9-4.6-3.8-6.2c8-3.6,12.1-8.3,12.1-14c0-5.9-3.1-10.2-9.2-12.8
				c-6.5-2.8-14.9-3.7-21.7-1.9c-0.8,0.2-1.6,0.5-2.3,1c-1.4,1.2-1.6,3.4-1.4,5.3c1,9,0,18.6,0,27.7c0,0.8,0,3-0.1,6.7v6.7
				c0,1.2,0.4,2.2,1.2,3c0.8,0.8,1.8,1.2,3,1.2c1.7,0,4.5-0.8,4.5-6.2v-12.7c1.8-0.1,3.5-0.3,5.3-0.8c1.9,3.2,3.4,5.6,4.4,7.3
				c1.3,2.3,2.6,4.6,4,7c2.3,3.6,4.3,5.3,6.3,5.3c1.2,0,2.2-0.4,3.2-1.2c0.9-0.8,1.4-1.9,1.4-3.1c0-0.8-0.3-2.3-3-6.4
				C303.3,146.3,302.1,144.3,300.8,142.4z M293.1,128.4c-3.3,1.3-6.7,2.2-10,2.6c0-6.9,0-12.1,0.1-15.6c0.3,0,0.5,0,0.8,0
				c4,0,7.4,0.4,10.2,1.2c4,1.2,6,3,6,5.4C300.2,124.4,297.8,126.5,293.1,128.4z"/>
		</g>
	</g>
	<g>
		<g>
			<path class="st0" d="M344.3,115c-6.4-6.4-13.2-9.2-22.3-8.3c-1.1,0.1-2.2,0.3-2.9,1.1c-0.5,0.6-0.6,1.5-0.7,2.3
				c-1.1,14.7-1.2,29.7-0.1,44.4c0.1,1,0.2,2.1,0.7,2.9c0.8,1.3,2.5,1.7,4,1.7c7.9-0.2,14.9-1.7,20.6-7.7c4.7-5,7-11.1,7-18.1
				C350.7,126.2,348.6,120.1,344.3,115z M337.1,144.8L337.1,144.8c-3,3.3-6.5,4.9-10.9,5c0-14.9,0-26.4-0.1-34.3
				c3.4,0.1,6.2,1,8.3,2.4c2.2,1.5,4,3.7,5.2,6.6c1.2,2.7,1.8,5.6,1.8,8.5C341.5,137.6,340.1,141.6,337.1,144.8z"/>
		</g>
	</g>
</g>
</svg>
