<?xml version="1.0" encoding="iso-8859-1"?>
<!-- Generator: Adobe Illustrator 17.1.0, SVG Export Plug-In . SVG Version: 6.00 Build 0)  -->
<!DOCTYPE svg PUBLIC "-//W3C//DTD SVG 1.1//EN" "http://www.w3.org/Graphics/SVG/1.1/DTD/svg11.dtd">
<svg version="1.1" id="Capa_1" xmlns="http://www.w3.org/2000/svg" xmlns:xlink="http://www.w3.org/1999/xlink" x="0px" y="0px"
	 viewBox="0 0 455 455" style="enable-background:new 0 0 455 455;" xml:space="preserve">
<g>
	<path d="M83.479,227.5c0-26.928-5.632-72.5-26.739-72.5C35.632,155,30,200.572,30,227.5S35.632,300,56.74,300
		C77.847,300,83.479,254.428,83.479,227.5z M45,227.5c0-35.214,7.889-54.132,11.74-57.253c3.851,3.122,11.739,22.04,11.739,57.253
		s-7.889,54.132-11.739,57.253C52.889,281.632,45,262.714,45,227.5z"/>
	<path d="M442.618,161.739c-8.842-19.588-21.315-30.375-35.125-30.375h-14.025c-9.343-13.307-20.625-20.455-32.729-20.455h-304
		c-16.276,0-31.068,12.915-41.654,36.367C5.358,168.829,0,197.32,0,227.5s5.358,58.671,15.086,80.224
		c10.585,23.452,25.378,36.367,41.654,36.367h304c12.104,0,23.385-7.148,32.729-20.455h14.025c13.81,0,26.283-10.788,35.125-30.375
		C450.603,275.571,455,252.216,455,227.5S450.603,179.429,442.618,161.739z M354.479,227.5c0,59.869-21.998,101.591-41.74,101.591
		h-51.506c4.859-5.64,9.292-12.796,13.161-21.367c9.729-21.553,15.086-50.044,15.086-80.224s-5.357-58.671-15.086-80.224
		c-3.869-8.571-8.301-15.727-13.161-21.367h51.506C332.481,125.909,354.479,167.631,354.479,227.5z M213.233,329.091
		c4.859-5.64,9.292-12.796,13.16-21.367c9.729-21.553,15.086-50.044,15.086-80.224s-5.357-58.671-15.086-80.224
		c-3.869-8.571-8.301-15.727-13.16-21.367h19.506c19.742,0,41.74,41.722,41.74,101.591s-21.998,101.591-41.74,101.591H213.233z
		 M133.233,329.091c4.859-5.64,9.292-12.796,13.16-21.367c9.729-21.553,15.086-50.044,15.086-80.224s-5.357-58.671-15.086-80.224
		c-3.869-8.571-8.301-15.727-13.16-21.367h51.506c19.742,0,41.74,41.722,41.74,101.591s-21.998,101.591-41.74,101.591H133.233z
		 M85.233,329.091c4.859-5.64,9.292-12.796,13.16-21.367c9.728-21.553,15.086-50.044,15.086-80.224s-5.358-58.671-15.086-80.224
		c-3.869-8.571-8.301-15.727-13.16-21.367h19.506c19.742,0,41.74,41.722,41.74,101.591s-21.998,101.591-41.74,101.591H85.233z
		 M15,227.5c0-59.869,21.998-101.591,41.74-101.591s41.74,41.722,41.74,101.591S76.482,329.091,56.74,329.091S15,287.369,15,227.5z
		 M360.739,329.091h-19.506c4.859-5.64,9.292-12.796,13.161-21.367c9.729-21.553,15.086-50.044,15.086-80.224
		s-5.357-58.671-15.086-80.224c-3.869-8.571-8.301-15.727-13.161-21.367h19.506c19.742,0,41.74,41.722,41.74,101.591
		S380.481,329.091,360.739,329.091z M407.493,308.636h-5.522c0.141-0.305,0.284-0.604,0.423-0.912
		c9.729-21.553,15.086-50.044,15.086-80.224s-5.357-58.671-15.086-80.224c-0.139-0.308-0.282-0.607-0.423-0.912h5.522
		c15.375,0,32.507,33.321,32.507,81.136S422.868,308.636,407.493,308.636z"/>
	<path d="M171.619,162.728h20c4.142,0,7.5-3.358,7.5-7.5s-3.358-7.5-7.5-7.5h-20c-4.142,0-7.5,3.358-7.5,7.5
		S167.477,162.728,171.619,162.728z"/>
	<path d="M175.271,203.409c0,4.142,3.358,7.5,7.5,7.5h20.001c4.142,0,7.5-3.358,7.5-7.5s-3.358-7.5-7.5-7.5h-20.001
		C178.629,195.909,175.271,199.267,175.271,203.409z"/>
	<path d="M202.772,244.091h-20c-4.142,0-7.5,3.358-7.5,7.5s3.358,7.5,7.5,7.5h20c4.142,0,7.5-3.358,7.5-7.5
		S206.915,244.091,202.772,244.091z"/>
	<path d="M191.619,292.273h-20c-4.142,0-7.5,3.358-7.5,7.5s3.358,7.5,7.5,7.5h20c4.142,0,7.5-3.358,7.5-7.5
		S195.761,292.273,191.619,292.273z"/>
	<path d="M299.619,162.728h20c4.143,0,7.5-3.358,7.5-7.5s-3.357-7.5-7.5-7.5h-20c-4.143,0-7.5,3.358-7.5,7.5
		S295.477,162.728,299.619,162.728z"/>
	<path d="M303.271,203.409c0,4.142,3.357,7.5,7.5,7.5h20.001c4.143,0,7.5-3.358,7.5-7.5s-3.357-7.5-7.5-7.5h-20.001
		C306.629,195.909,303.271,199.267,303.271,203.409z"/>
	<path d="M330.772,244.091h-20c-4.143,0-7.5,3.358-7.5,7.5s3.357,7.5,7.5,7.5h20c4.143,0,7.5-3.358,7.5-7.5
		S334.915,244.091,330.772,244.091z"/>
	<path d="M299.619,307.273h20c4.143,0,7.5-3.358,7.5-7.5s-3.357-7.5-7.5-7.5h-20c-4.143,0-7.5,3.358-7.5,7.5
		S295.477,307.273,299.619,307.273z"/>
</g>
<g>
</g>
<g>
</g>
<g>
</g>
<g>
</g>
<g>
</g>
<g>
</g>
<g>
</g>
<g>
</g>
<g>
</g>
<g>
</g>
<g>
</g>
<g>
</g>
<g>
</g>
<g>
</g>
<g>
</g>
</svg>
