<?xml version="1.0" encoding="utf-8"?>
<!-- Generator: Adobe Illustrator 25.0.0, SVG Export Plug-In . SVG Version: 6.00 Build 0)  -->
<svg version="1.1" id="Capa_1" xmlns="http://www.w3.org/2000/svg" xmlns:xlink="http://www.w3.org/1999/xlink" x="0px" y="0px"
	 viewBox="0 0 512 512" style="enable-background:new 0 0 512 512;" xml:space="preserve">
<style type="text/css">
	.st0{fill:#FFFFFF;}
</style>
<g>
	<g>
		<path class="st0" d="M499.2,118.1c-4.1-10.3-15.2-9.8-24.5-9.9c-11.6-0.1-23.2-0.2-34.8-0.3c-13.3-0.1-26.6-0.1-40,0
			c2.4-20,2-40.6,3.4-60.7c0.5-7.6,2.4-16.6-0.8-23.9c-3.5-8-11.4-8.6-18.9-6.4C364.2,22.7,344.9,30,326,37.6
			c-18.2,7.4-36.9,14.6-54,24.4c-5.3-10.6-16.5-12.6-28.4-11c-9.2,1.3-17.2,5-22.8,11.5c-25.6-17.4-55.1-29.9-83.9-40.7
			c-11.3-4.3-27.7-11.1-37.1,0.5c-4,5-4.8,11.5-4.6,17.7c0.2,8,0.6,16.1,1.5,24c1.8,16.7,4.3,34,9.6,50.1
			c-15.8,0.1-31.6,0.2-47.4,0.3c-10.6,0.1-22.2-0.8-32.5,1.5c-9.8,2.2-14,9.8-14.7,19.2c-0.9,11.2-0.2,22.7-0.4,34
			c-0.2,8.3-0.4,17.9,6.3,24c3.6,3.3,8.3,4.6,13.1,5c0,30.6,1.9,61.2,3.9,91.8c2.1,33.2,4.8,66.5,7.8,99.6c1.5,16.3,3,32.5,4.6,48.7
			c1.3,12.9,0.8,28.4,8.8,39.3c8.5,11.6,23.3,12.3,36.4,13.2c16.3,1,32.6,2.1,48.9,2.9c65.9,3.3,132,3.6,197.8,0.5
			c17-0.8,34-1.8,50.9-3.1c13.8-1,29.4-0.6,42.4-5.8c12-4.8,19-15,22.5-27.1c4.1-14.4,5.1-30,7-44.9c9.3-72.6,14.1-146.6,10.5-219.8
			c8.3-1.7,15-6.2,18.4-14.4c4.1-9.7,4.8-21.1,6.5-31.4C498.9,138.5,502.8,127,499.2,118.1z M322.8,48.3c16.7-6,33.5-11.8,50.4-17.1
			c4.4-1.4,8.8-2.8,13.2-4.1c3.2-0.9,5.9-1.9,6.9,2.1c0.7,3.1,0.1,6.7-0.1,9.9c-0.3,4.7-0.6,9.4-0.9,14.2
			c-1.2,18.1-4.1,36.5-4.2,54.7c-6.6,0-13.2,0.1-19.8,0.2c-30.6,0.4-61.3,0.9-91.9,2.2c0.6-4.6,0.9-9.3,1-14c15.7-0.4,31.2,1,46.7,4
			c4.9,0.9,7-6.6,2.1-7.5c-16.1-2.9-32.5-3.5-48.8-2.3c0-1.8-0.1-3.6-0.3-5.5c16.7-6.1,33.4-12.1,49.9-18.4c4.2-1.6,2.4-8.5-1.9-6.9
			c-16.3,6.1-32.5,12.5-48.8,18.8c-0.6-4.1-1.5-8.2-2.7-12.1C290.4,61.2,306.5,54.2,322.8,48.3z M223,80.4
			c2.5-11.1,9.6-17.6,20.8-19.7c4.4-0.8,9.9-1.5,14.3,0c5.1,1.8,6.6,7.1,7.7,11.9c2.8,12,2.7,24.6,0.7,36.8
			c-0.1,0.5-0.1,0.9-0.1,1.3c-13.4,0.6-26.8,1.4-40.1,2.4C223.8,102.5,220.6,91.2,223,80.4z M106.4,35.4c1.8-8.4,8.7-7.8,15.5-5.8
			c33,9.7,63.7,25.1,95.2,38.5c-1,1.9-1.8,3.9-2.5,6.1c-0.7,2.2-1.1,4.4-1.3,6.6c-13.3-6.4-26.6-12.8-40.2-18.4
			c-4.1-1.7-7.1,5.3-3,7.2c14.1,6.5,28.6,12.3,43.1,17.9c0.2,2.6,0.5,5.1,1.1,7.7c-12-3.3-25.1-4.1-37.3-5.4c-4.2-0.5-4.2,6.1,0,6.6
			c12.4,1.3,25.6,3.4,38.2,2.5c1.4,5,3.4,10,5.5,14.7c-0.2,0-0.4,0-0.7,0.1c-6.1,0-12.2,0-18.2,0.1c-28,0.1-55.9,0.3-83.9,0.4
			c-5-17.5-9.9-34.6-11.4-52.9C105.9,52.9,104.7,43.6,106.4,35.4z M24.6,184.2c-2.4-2.7-2.5-7.3-2.6-10.7c-0.2-5.5-0.2-11-0.2-16.5
			c0-5,0-10,0-15c0-4.7-0.6-10.7,4.4-13c3.4-1.6,7.5-1.3,11.1-1.3c5.8,0,11.7,0.1,17.5,0c44.6-0.7,89.1-1.4,133.7-2.3
			c6.6-0.1,13.3-0.2,19.9-0.4c0.1,9.9,1,19.8,1.6,29.6c0.6,10,1.1,20,1.5,30.1c-53,0.6-106,1.3-159,2c-5.5,0.1-10.9,0.2-16.4,0.2
			C32.4,186.9,27.3,187.3,24.6,184.2z M38,198.2c2.2,0,4.3-0.1,6.3-0.1c12.3-0.1,24.6-0.2,36.9-0.3c8-0.1,16-0.1,24-0.2
			c-11.2,10.1-21.6,21.4-32,32.3c-10.2,10.6-20.1,21.5-29.5,32.7C42.1,241.1,40.4,219.6,38,198.2z M46.5,295.9
			c-0.8-9.1-1.5-18.3-2.2-27.4c11.1-11.5,22.1-23.1,33.3-34.5c12.3-12.4,25.5-24,37.6-36.6c12.3-0.1,24.6-0.2,36.8-0.3
			c10.5-0.1,21.1-0.2,31.6-0.3c-22.9,22.6-44.8,46.2-67.2,69.4c-22.4,23.2-44.6,46.7-66.4,70.4C48.9,323.1,47.7,309.5,46.5,295.9z
			 M56.4,401.7c-2-19.5-3.9-39-5.7-58.5c24-23.6,47.7-47.5,71.1-71.7c24-24.8,48.6-49.2,71.9-74.7c6.2,0,12.3-0.1,18.5-0.1
			c0.7,15.2,1.3,30.3,1.8,45.5c-28.8,27.4-55.4,57.2-82.8,86c-24.9,26.1-50.4,51.8-74.1,79C56.7,405.3,56.5,403.5,56.4,401.7z
			 M65.1,466.9c-2.5-5.8-2.9-12.4-3.6-18.6c-1.3-11.5-2.6-23-3.8-34.6c27.3-25.6,52.9-53.3,78.9-80.2c25.9-26.8,52.8-53.1,77.7-81
			c0.1,2.9,0.2,5.8,0.2,8.8c0.5,19.6,0.8,39.1,1,58.7c-12,11.9-22.7,25.2-33.7,37.9c-12.3,14.1-24.8,28-37.5,41.7
			C120.6,425.1,96.5,450,72,474.6C69,472.9,66.6,470.4,65.1,466.9z M213.4,484.8c-14.5-0.2-29.1-0.6-43.6-1.1
			c-3.8-0.1-7.5-0.3-11.3-0.5c11.6-11.2,22.5-22.9,32.9-35.2c8.1-9.6,16.5-19.7,23.8-30.4C214.7,440,214,462.4,213.4,484.8z
			 M215.4,404.3c-10.1,13-19.1,26.8-29.3,39.8c-10.5,13.4-21.7,26.4-33.2,38.9c-10-0.5-20-1-30-1.7c-7.8-0.5-15.6-1-23.4-1.7
			c-7.1-0.6-14.4-0.8-21.3-2.6c-0.5-0.1-1-0.3-1.4-0.4c25.5-23,50.1-47.1,73.7-72.1c12.8-13.6,25.4-27.4,37.8-41.4
			c9.3-10.6,18.9-21.2,27.3-32.6C215.8,355,215.8,379.7,215.4,404.3z M218.7,156.6c-0.9-10.5-1.6-21.2-3.1-31.8
			c21.7-0.4,43.4-0.7,65.1-1c0.4,20,0.9,40,1.4,59.9c-20.4,0.2-40.8,0.5-61.2,0.7C220.3,175.2,219.5,165.9,218.7,156.6z
			 M223.3,484.9c6-95.7,4.8-192.1-1.5-287.7c0-0.2,0-0.5,0-0.7c20.2-0.2,40.5-0.3,60.7-0.5c0.6,21.5,1.2,43,1.7,64.4
			c1.1,47.9,1.6,95.8,1.9,143.6c0.2,26.7,0.2,53.4,0.9,80.1C265.8,484.8,244.5,485.1,223.3,484.9z M292.3,199c0-1-0.1-2-0.2-3
			c0.9,0,1.7,0,2.6,0c16.7-0.1,33.5-0.3,50.2-0.5c-8.8,10.4-17.4,21.1-26.1,31.6c-8.1,9.8-16.5,19.6-24.2,29.9
			C294,237.7,293.3,218.4,292.3,199z M324.3,231.2c9.9-11.9,20.1-23.7,29.9-35.8c19.3-0.2,38.7-0.4,58-0.6
			c-3.5,4.1-6.7,8.4-10.1,12.5c-5.4,6.6-10.8,13.1-16.2,19.7c-10.6,12.9-21.2,25.8-31.8,38.7c-19.3,23.5-39,46.6-57.3,70.9
			c-0.5-23.8-1.1-47.7-1.9-71.5C305.3,254.4,314.8,242.6,324.3,231.2z M453.5,380.8c-1.6,15.6-3.4,31.2-5.6,46.8
			c-1.7,12-2.4,26-8.8,36.7c-7.1,11.7-21.7,12-33.8,13.1c-15.9,1.4-31.9,2.6-47.8,3.7c-4.4,0.3-8.7,0.5-13.1,0.8
			c10.3-11.7,19.4-24.6,28.6-37.1c11.5-15.5,22.7-31.2,33.6-47.1c10.8-15.6,21.3-31.4,31.5-47.4c6.8-10.6,13.8-21.1,20.3-31.9
			C457.2,339.1,455.6,360,453.5,380.8z M459.2,302.3c-9.9,13.8-18.5,28.6-27.8,42.9c-10.4,15.9-20.8,31.7-31.4,47.4
			c-10.6,15.7-21.3,31.3-32.1,46.9c-9.8,14.1-20.6,27.9-29.5,42.7c-14.1,0.8-28.1,1.4-42.2,1.8c0.7-14.5,1.1-29.1,1.3-43.7
			c45.8-58,90.8-116.7,134.5-176.4c6.2-8.5,12.5-17,18.7-25.6c3.3-4.6,7.1-9.1,10.5-13.8C460.9,250.5,460.3,276.4,459.2,302.3z
			 M461.3,211.8c-4.9,5.5-9.1,11.9-13.5,17.7c-5.8,7.6-11.6,15.2-17.4,22.8c-11.4,14.9-22.6,29.9-33.9,44.9
			c-22.9,30.5-45.3,61.4-67.7,92.3c-10.6,14.6-20.9,29.2-31.3,43.9c0.4-30.2,0.1-60.4-0.6-90.5c22.1-23.8,42.5-49.2,63.4-74
			c10.7-12.8,21.4-25.5,32.2-38.3c5.3-6.2,10.5-12.5,15.8-18.7c4.8-5.7,9.9-11.2,14.2-17.3c5.3-0.1,10.6-0.1,15.9-0.2
			c7.6-0.1,15.3,0.2,22.9-0.1C461.3,200.2,461.3,206,461.3,211.8z M487.2,132.2c-1,5.6-1.9,11.3-2.9,16.9
			c-0.9,5.2-1.7,10.5-2.6,15.7c-0.7,4.2-1.3,9.2-4.1,12.6c-5.2,6.4-17.8,4.5-25,4.6c-44.5,0.4-88.9,0.7-133.4,1.3
			c-9.3,0.1-18.5,0.2-27.8,0.3c-1.1-20-2.3-40-3.9-59.9c56.1-0.8,112.2-1.6,168.3-3.1c3.7-0.1,7.3-0.3,10.9-0.5
			c1.9,0.1,3.9,0.1,5.8,0.2c3.4,0.1,12-1.2,14.5,1.7C489.2,124.4,487.7,129.5,487.2,132.2z"/>
	</g>
</g>
</svg>
