<?xml version="1.0" encoding="utf-8"?>
<!-- Generator: Adobe Illustrator 25.0.0, SVG Export Plug-In . SVG Version: 6.00 Build 0)  -->
<svg version="1.1" id="Capa_1" xmlns="http://www.w3.org/2000/svg" xmlns:xlink="http://www.w3.org/1999/xlink" x="0px" y="0px"
	 viewBox="0 0 379.2 379.2" style="enable-background:new 0 0 379.2 379.2;" xml:space="preserve">
<style type="text/css">
	.st0{fill:#FFFFFF;}
</style>
<g>
	<path class="st0" d="M185.9,197.8c19-7.4,29-20,29.9-37.4c0.7-14.1-4.8-28.4-9.2-39.8c-0.8-2-1.5-4-2.2-5.8V5c0-2.8-2.2-5-5-5
		h-87.9c-2.8,0-5,2.2-5,5v88.1c0,32.4-15.9,53.4-16,53.6c0,0-69.9,94.8-69.9,94.9c-4.9,7.7-9.5,16.2-9.8,27
		c-0.2,12,4.2,23.3,12.5,32c8.3,8.6,19.4,13.5,31.4,13.8c0.3,0,21.8,0,36-16.9l73.6-83C164.4,214.3,175.1,202,185.9,197.8z
		 M205.8,159.9c-0.9,13.3-8.3,22.6-23.5,28.6c-2.6,1-5.1,2.4-7.6,3.9c-12.8-37.6,11.3-60.8,22.2-69
		C197.1,123.6,206.8,145.1,205.8,159.9z M116.6,10h77.9v12.9h-77.9V10z M116.6,32.9h77.9v10.7h-77.9V32.9z M54.9,304.3
		c-9.3-0.2-18-4-24.4-10.7c-6.4-6.7-9.9-15.5-9.7-24.8c0.1-6.6,2.5-12.4,6.2-18.5c10.1,3.6,39.6,16.4,51.1,45.9
		C71.7,301.5,63.5,304.4,54.9,304.3z M156.8,207.8l-35.7,40.3c-0.2-0.2-0.3-0.5-0.5-0.6c-0.9-0.9-2.2-1.5-3.5-1.5
		c-1.3,0-2.6,0.5-3.5,1.5c-0.9,0.9-1.5,2.2-1.5,3.5c0,1.3,0.5,2.6,1.5,3.5c0.3,0.3,0.7,0.6,1.2,0.8l-29.1,32.8
		c-1.1-2.4-2.3-4.7-3.6-6.9c0.1-0.1,0.2-0.2,0.3-0.2c0.9-0.9,1.5-2.2,1.5-3.5c0-1.3-0.5-2.6-1.5-3.5c-0.9-0.9-2.2-1.5-3.5-1.5
		c-0.8,0-1.6,0.2-2.3,0.6c-14-18.1-33.3-27.4-43.5-31.3l29.6-40.1c0.9,0.9,2.2,1.4,3.5,1.4c1.3,0,2.6-0.5,3.5-1.5
		c0.9-0.9,1.5-2.2,1.5-3.5c0-1.3-0.5-2.6-1.5-3.5c-0.3-0.3-0.8-0.6-1.2-0.8l30.1-40.9c1.2-1.6,16.8-22.5,18-55.6
		c0.2,0,0.3,0.1,0.5,0.1c1.3,0,2.6-0.5,3.5-1.5c0.9-0.9,1.5-2.2,1.5-3.5c0-1.3-0.5-2.6-1.5-3.5c-0.9-0.9-2.2-1.5-3.5-1.5
		c-0.1,0-0.3,0-0.4,0V53.6h77.9v33.7c-0.3-0.1-0.6-0.1-0.9-0.1c-1.3,0-2.6,0.5-3.5,1.5c-0.9,0.9-1.5,2.2-1.5,3.5
		c0,1.3,0.5,2.6,1.5,3.5c0.9,0.9,2.2,1.5,3.5,1.5c0.3,0,0.6,0,0.9-0.1v15.8c-2.1,1.4-5.2,3.7-8.8,6.9c0.1-0.4,0.1-0.8,0.1-1.2
		c0-1.3-0.5-2.6-1.5-3.5c-0.9-0.9-2.2-1.5-3.5-1.5s-2.6,0.5-3.5,1.5c-0.9,0.9-1.5,2.2-1.5,3.5c0,1.3,0.5,2.6,1.5,3.5
		c0.9,0.9,2.2,1.5,3.5,1.5c0.3,0,0.6,0,0.9-0.1c-3,3-6,6.6-8.8,10.7c-1.3,1.8-2.5,3.8-3.7,6c-0.4-0.1-0.8-0.2-1.2-0.2
		c-1.3,0-2.6,0.5-3.5,1.5c-0.9,0.9-1.5,2.2-1.5,3.5c0,1.3,0.5,2.6,1.5,3.5c0.2,0.2,0.4,0.3,0.6,0.5c-4.4,11.9-6.1,27-0.3,45.1
		c-0.1,0.1-0.2,0.2-0.3,0.3c-0.9,0.9-1.5,2.2-1.5,3.5c0,0.9,0.3,1.9,0.8,2.7C159.7,204.5,157,207.5,156.8,207.8z"/>
	<path class="st0" d="M129.8,60.7c-1.3,0-2.6,0.5-3.5,1.5c-0.9,0.9-1.5,2.2-1.5,3.5c0,1.3,0.5,2.6,1.5,3.5c0.9,0.9,2.2,1.5,3.5,1.5
		c1.3,0,2.6-0.5,3.5-1.5c0.9-0.9,1.5-2.2,1.5-3.5c0-1.3-0.5-2.6-1.5-3.5C132.4,61.3,131.1,60.7,129.8,60.7z"/>
	<path class="st0" d="M155.3,60.7c-1.3,0-2.6,0.5-3.5,1.5c-0.9,0.9-1.5,2.2-1.5,3.5c0,1.3,0.5,2.6,1.5,3.5c0.9,0.9,2.2,1.5,3.5,1.5
		c1.3,0,2.6-0.5,3.5-1.5c0.9-0.9,1.5-2.2,1.5-3.5c0-1.3-0.5-2.6-1.5-3.5C157.9,61.3,156.6,60.7,155.3,60.7z"/>
	<path class="st0" d="M180.8,70.7c1.3,0,2.6-0.5,3.5-1.5c0.9-0.9,1.5-2.2,1.5-3.5c0-1.3-0.5-2.6-1.5-3.5c-0.9-0.9-2.2-1.5-3.5-1.5
		s-2.6,0.5-3.5,1.5c-0.9,0.9-1.5,2.2-1.5,3.5c0,1.3,0.5,2.6,1.5,3.5C178.2,70.2,179.5,70.7,180.8,70.7z"/>
	<path class="st0" d="M142.5,87.2c-1.3,0-2.6,0.5-3.5,1.5c-0.9,0.9-1.5,2.2-1.5,3.5c0,1.3,0.5,2.6,1.5,3.5c0.9,0.9,2.2,1.5,3.5,1.5
		c1.3,0,2.6-0.5,3.5-1.5c0.9-0.9,1.5-2.2,1.5-3.5c0-1.3-0.5-2.6-1.5-3.5C145.1,87.7,143.8,87.2,142.5,87.2z"/>
	<path class="st0" d="M168,97.2c1.3,0,2.6-0.5,3.5-1.5c0.9-0.9,1.5-2.2,1.5-3.5c0-1.3-0.5-2.6-1.5-3.5c-0.9-0.9-2.2-1.5-3.5-1.5
		s-2.6,0.5-3.5,1.5c-0.9,0.9-1.5,2.2-1.5,3.5c0,1.3,0.5,2.6,1.5,3.5C165.4,96.7,166.7,97.2,168,97.2z"/>
	<path class="st0" d="M129.8,113.7c-1.3,0-2.6,0.5-3.5,1.5c-0.9,0.9-1.5,2.2-1.5,3.5c0,1.3,0.5,2.6,1.5,3.5c0.9,0.9,2.2,1.5,3.5,1.5
		c1.3,0,2.6-0.5,3.5-1.5c0.9-0.9,1.5-2.2,1.5-3.5c0-1.3-0.5-2.6-1.5-3.5C132.4,114.2,131.1,113.7,129.8,113.7z"/>
	<path class="st0" d="M155.3,113.7c-1.3,0-2.6,0.5-3.5,1.5c-0.9,0.9-1.5,2.2-1.5,3.5c0,1.3,0.5,2.6,1.5,3.5c0.9,0.9,2.2,1.5,3.5,1.5
		c1.3,0,2.6-0.5,3.5-1.5c0.9-0.9,1.5-2.2,1.5-3.5c0-1.3-0.5-2.6-1.5-3.5C157.9,114.2,156.6,113.7,155.3,113.7z"/>
	<path class="st0" d="M117,140.1c-1.3,0-2.6,0.5-3.5,1.5c-0.9,0.9-1.5,2.2-1.5,3.5c0,1.3,0.5,2.6,1.5,3.5s2.2,1.5,3.5,1.5
		c1.3,0,2.6-0.5,3.5-1.5c0.9-0.9,1.5-2.2,1.5-3.5c0-1.3-0.5-2.6-1.5-3.5S118.3,140.1,117,140.1z"/>
	<path class="st0" d="M142.5,140.1c-1.3,0-2.6,0.5-3.5,1.5c-0.9,0.9-1.5,2.2-1.5,3.5c0,1.3,0.5,2.6,1.5,3.5c0.9,0.9,2.2,1.5,3.5,1.5
		s2.6-0.5,3.5-1.5c0.9-0.9,1.5-2.2,1.5-3.5c0-1.3-0.5-2.6-1.5-3.5C145.1,140.7,143.8,140.1,142.5,140.1z"/>
	<path class="st0" d="M104.2,166.6c-1.3,0-2.6,0.5-3.5,1.5c-0.9,0.9-1.5,2.2-1.5,3.5c0,1.3,0.5,2.6,1.5,3.5s2.2,1.5,3.5,1.5
		c1.3,0,2.6-0.5,3.5-1.5c0.9-0.9,1.5-2.2,1.5-3.5c0-1.3-0.5-2.6-1.5-3.5C106.8,167.1,105.5,166.6,104.2,166.6z"/>
	<path class="st0" d="M129.8,166.6c-1.3,0-2.6,0.5-3.5,1.5c-0.9,0.9-1.5,2.2-1.5,3.5c0,1.3,0.5,2.6,1.5,3.5c0.9,0.9,2.2,1.5,3.5,1.5
		c1.3,0,2.6-0.5,3.5-1.5c0.9-0.9,1.5-2.2,1.5-3.5c0-1.3-0.5-2.6-1.5-3.5C132.4,167.1,131.1,166.6,129.8,166.6z"/>
	<path class="st0" d="M155.3,166.6c-1.3,0-2.6,0.5-3.5,1.5c-0.9,0.9-1.5,2.2-1.5,3.5c0,1.3,0.5,2.6,1.5,3.5s2.2,1.5,3.5,1.5
		c1.3,0,2.6-0.5,3.5-1.5c0.9-0.9,1.5-2.2,1.5-3.5c0-1.3-0.5-2.6-1.5-3.5C157.9,167.1,156.6,166.6,155.3,166.6z"/>
	<path class="st0" d="M91.5,193.1c-1.3,0-2.6,0.5-3.5,1.5c-0.9,0.9-1.5,2.2-1.5,3.5c0,1.3,0.5,2.6,1.5,3.5c0.9,0.9,2.2,1.5,3.5,1.5
		c1.3,0,2.6-0.5,3.5-1.5c0.9-0.9,1.5-2.2,1.5-3.5c0-1.3-0.5-2.6-1.5-3.5C94.1,193.6,92.8,193.1,91.5,193.1z"/>
	<path class="st0" d="M117,193.1c-1.3,0-2.6,0.5-3.5,1.5c-0.9,0.9-1.5,2.2-1.5,3.5c0,1.3,0.5,2.6,1.5,3.5c0.9,0.9,2.2,1.5,3.5,1.5
		c1.3,0,2.6-0.5,3.5-1.5c0.9-0.9,1.5-2.2,1.5-3.5c0-1.3-0.5-2.6-1.5-3.5C119.6,193.6,118.3,193.1,117,193.1z"/>
	<path class="st0" d="M142.5,193.1c-1.3,0-2.6,0.5-3.5,1.5c-0.9,0.9-1.5,2.2-1.5,3.5c0,1.3,0.5,2.6,1.5,3.5c0.9,0.9,2.2,1.5,3.5,1.5
		s2.6-0.5,3.5-1.5c0.9-0.9,1.5-2.2,1.5-3.5c0-1.3-0.5-2.6-1.5-3.5C145.1,193.6,143.8,193.1,142.5,193.1z"/>
	<path class="st0" d="M53.2,219.5c-1.3,0-2.6,0.5-3.5,1.5c-0.9,0.9-1.5,2.2-1.5,3.5c0,1.3,0.5,2.6,1.5,3.5c0.9,0.9,2.2,1.5,3.5,1.5
		c1.3,0,2.6-0.5,3.5-1.5c0.9-0.9,1.5-2.2,1.5-3.5c0-1.3-0.5-2.6-1.5-3.5C55.8,220.1,54.5,219.5,53.2,219.5z"/>
	<path class="st0" d="M78.7,219.5c-1.3,0-2.6,0.5-3.5,1.5c-0.9,0.9-1.5,2.2-1.5,3.5c0,1.3,0.5,2.6,1.5,3.5c0.9,0.9,2.2,1.5,3.5,1.5
		c1.3,0,2.6-0.5,3.5-1.5c0.9-0.9,1.5-2.2,1.5-3.5c0-1.3-0.5-2.6-1.5-3.5C81.3,220.1,80,219.5,78.7,219.5z"/>
	<path class="st0" d="M104.2,219.5c-1.3,0-2.6,0.5-3.5,1.5c-0.9,0.9-1.5,2.2-1.5,3.5c0,1.3,0.5,2.6,1.5,3.5c0.9,0.9,2.2,1.5,3.5,1.5
		c1.3,0,2.6-0.5,3.5-1.5c0.9-0.9,1.5-2.2,1.5-3.5c0-1.3-0.5-2.6-1.5-3.5C106.8,220.1,105.5,219.5,104.2,219.5z"/>
	<path class="st0" d="M129.8,219.5c-1.3,0-2.6,0.5-3.5,1.5c-0.9,0.9-1.5,2.2-1.5,3.5c0,1.3,0.5,2.6,1.5,3.5c0.9,0.9,2.2,1.5,3.5,1.5
		c1.3,0,2.6-0.5,3.5-1.5c0.9-0.9,1.5-2.2,1.5-3.5c0-1.3-0.5-2.6-1.5-3.5C132.4,220.1,131.1,219.5,129.8,219.5z"/>
	<path class="st0" d="M66,246c-1.3,0-2.6,0.5-3.5,1.5c-0.9,0.9-1.5,2.2-1.5,3.5c0,1.3,0.5,2.6,1.5,3.5c0.9,0.9,2.2,1.5,3.5,1.5
		c1.3,0,2.6-0.5,3.5-1.5c0.9-0.9,1.5-2.2,1.5-3.5c0-1.3-0.5-2.6-1.5-3.5C68.6,246.5,67.3,246,66,246z"/>
	<path class="st0" d="M91.5,246c-1.3,0-2.6,0.5-3.5,1.5c-0.9,0.9-1.5,2.2-1.5,3.5c0,1.3,0.5,2.6,1.5,3.5c0.9,0.9,2.2,1.5,3.5,1.5
		c1.3,0,2.6-0.5,3.5-1.5c0.9-0.9,1.5-2.2,1.5-3.5c0-1.3-0.5-2.6-1.5-3.5C94.1,246.5,92.8,246,91.5,246z"/>
	<path class="st0" d="M359.2,185.5c-0.8-2-1.5-4-2.2-5.8V69.9c0-2.8-2.2-5-5-5h-87.9c-2.8,0-5,2.2-5,5V158c0,32.4-15.9,53.4-16,53.6
		c0,0-69.9,94.8-69.9,94.9c-4.9,7.7-9.5,16.2-9.8,27c-0.2,12,4.2,23.3,12.5,32c8.3,8.6,19.4,13.5,31.4,13.8c0.3,0,21.8,0,36-16.9
		l73.6-83c0.1-0.1,10.7-12.3,21.6-16.6c19-7.4,29-20,29.9-37.4C369,211.2,363.6,196.9,359.2,185.5z M269.1,74.9H347v12.9h-77.9V74.9
		z M269.1,97.8H347v10.7h-77.9V97.8z M207.5,369.2c-9.3-0.2-18-4-24.4-10.7c-6.4-6.7-9.9-15.5-9.7-24.8c0.1-6.6,2.5-12.4,6.2-18.5
		c10.1,3.6,39.6,16.4,51.1,45.9C224.2,366.5,216.1,369.4,207.5,369.2z M309.4,272.7L273.6,313c-0.2-0.2-0.3-0.5-0.5-0.6
		c-0.9-0.9-2.2-1.5-3.5-1.5c-1.3,0-2.6,0.5-3.5,1.5c-0.9,0.9-1.5,2.2-1.5,3.5c0,1.3,0.5,2.6,1.5,3.5c0.3,0.3,0.7,0.6,1.2,0.8
		l-29.1,32.8c-1.1-2.4-2.3-4.7-3.6-6.9c0.1-0.1,0.2-0.2,0.3-0.2c0.9-0.9,1.5-2.2,1.5-3.5c0-1.3-0.5-2.6-1.5-3.5
		c-0.9-0.9-2.2-1.5-3.5-1.5c-0.8,0-1.6,0.2-2.3,0.6c-14-18.1-33.3-27.4-43.5-31.3l29.6-40.1c0.9,0.9,2.2,1.4,3.5,1.4
		c1.3,0,2.6-0.5,3.5-1.5c0.9-0.9,1.5-2.2,1.5-3.5c0-1.3-0.5-2.6-1.5-3.5c-0.3-0.3-0.8-0.6-1.2-0.8l30.1-40.9
		c1.2-1.6,16.8-22.5,18-55.6c0.2,0,0.4,0.1,0.5,0.1c1.3,0,2.6-0.5,3.5-1.5c0.9-0.9,1.5-2.2,1.5-3.5c0-1.3-0.5-2.6-1.5-3.5
		c-0.9-0.9-2.2-1.5-3.5-1.5c-0.1,0-0.3,0-0.4,0v-33.7H347v33.7c-0.3-0.1-0.6-0.1-0.9-0.1c-1.3,0-2.6,0.5-3.5,1.5
		c-0.9,0.9-1.5,2.2-1.5,3.5c0,1.3,0.5,2.6,1.5,3.5c0.9,0.9,2.2,1.5,3.5,1.5c0.3,0,0.6,0,0.9-0.1v15.8c-2.1,1.4-5.2,3.7-8.8,6.9
		c0.1-0.4,0.1-0.8,0.1-1.2c0-1.3-0.5-2.6-1.5-3.5c-0.9-0.9-2.2-1.5-3.5-1.5c-1.3,0-2.6,0.5-3.5,1.5c-0.9,0.9-1.5,2.2-1.5,3.5
		c0,1.3,0.5,2.6,1.5,3.5c0.9,0.9,2.2,1.5,3.5,1.5c0.3,0,0.6,0,0.9-0.1c-3,3-6,6.6-8.8,10.7c-1.3,1.8-2.5,3.8-3.7,6
		c-0.4-0.1-0.8-0.2-1.2-0.2c-1.3,0-2.6,0.5-3.5,1.5c-0.9,0.9-1.5,2.2-1.5,3.5c0,1.3,0.5,2.6,1.5,3.5c0.2,0.2,0.4,0.3,0.6,0.5
		c-4.4,11.9-6.1,27-0.3,45.1c-0.1,0.1-0.2,0.2-0.3,0.3c-0.9,0.9-1.5,2.2-1.5,3.5c0,0.9,0.3,1.9,0.8,2.7
		C312.3,269.4,309.6,272.5,309.4,272.7z M358.4,224.9c-0.9,13.3-8.3,22.6-23.5,28.6c-2.6,1-5.1,2.4-7.6,3.9
		c-12.8-37.6,11.3-60.8,22.2-69C349.6,188.5,359.4,210.1,358.4,224.9z"/>
	<path class="st0" d="M282.3,125.7c-1.3,0-2.6,0.5-3.5,1.5c-0.9,0.9-1.5,2.2-1.5,3.5c0,1.3,0.5,2.6,1.5,3.5c0.9,0.9,2.2,1.5,3.5,1.5
		c1.3,0,2.6-0.5,3.5-1.5c0.9-0.9,1.5-2.2,1.5-3.5c0-1.3-0.5-2.6-1.5-3.5C284.9,126.2,283.6,125.7,282.3,125.7z"/>
	<path class="st0" d="M307.9,125.7c-1.3,0-2.6,0.5-3.5,1.5c-0.9,0.9-1.5,2.2-1.5,3.5c0,1.3,0.5,2.6,1.5,3.5c0.9,0.9,2.2,1.5,3.5,1.5
		c1.3,0,2.6-0.5,3.5-1.5c0.9-0.9,1.5-2.2,1.5-3.5c0-1.3-0.5-2.6-1.5-3.5C310.5,126.2,309.2,125.7,307.9,125.7z"/>
	<path class="st0" d="M333.4,135.7c1.3,0,2.6-0.5,3.5-1.5c0.9-0.9,1.5-2.2,1.5-3.5c0-1.3-0.5-2.6-1.5-3.5c-0.9-0.9-2.2-1.5-3.5-1.5
		c-1.3,0-2.6,0.5-3.5,1.5c-0.9,0.9-1.5,2.2-1.5,3.5c0,1.3,0.5,2.6,1.5,3.5C330.8,135.1,332.1,135.7,333.4,135.7z"/>
	<path class="st0" d="M295.1,152.1c-1.3,0-2.6,0.5-3.5,1.5c-0.9,0.9-1.5,2.2-1.5,3.5c0,1.3,0.5,2.6,1.5,3.5c0.9,0.9,2.2,1.5,3.5,1.5
		c1.3,0,2.6-0.5,3.5-1.5c0.9-0.9,1.5-2.2,1.5-3.5c0-1.3-0.5-2.6-1.5-3.5C297.7,152.7,296.4,152.1,295.1,152.1z"/>
	<path class="st0" d="M320.6,162.1c1.3,0,2.6-0.5,3.5-1.5c0.9-0.9,1.5-2.2,1.5-3.5c0-1.3-0.5-2.6-1.5-3.5c-0.9-0.9-2.2-1.5-3.5-1.5
		c-1.3,0-2.6,0.5-3.5,1.5c-0.9,0.9-1.5,2.2-1.5,3.5c0,1.3,0.5,2.6,1.5,3.5C318,161.6,319.3,162.1,320.6,162.1z"/>
	<path class="st0" d="M282.3,178.6c-1.3,0-2.6,0.5-3.5,1.5c-0.9,0.9-1.5,2.2-1.5,3.5c0,1.3,0.5,2.6,1.5,3.5c0.9,0.9,2.2,1.5,3.5,1.5
		c1.3,0,2.6-0.5,3.5-1.5c0.9-0.9,1.5-2.2,1.5-3.5c0-1.3-0.5-2.6-1.5-3.5C284.9,179.1,283.6,178.6,282.3,178.6z"/>
	<path class="st0" d="M307.9,178.6c-1.3,0-2.6,0.5-3.5,1.5c-0.9,0.9-1.5,2.2-1.5,3.5c0,1.3,0.5,2.6,1.5,3.5c0.9,0.9,2.2,1.5,3.5,1.5
		c1.3,0,2.6-0.5,3.5-1.5c0.9-0.9,1.5-2.2,1.5-3.5c0-1.3-0.5-2.6-1.5-3.5C310.5,179.1,309.2,178.6,307.9,178.6z"/>
	<path class="st0" d="M269.6,205.1c-1.3,0-2.6,0.5-3.5,1.5c-0.9,0.9-1.5,2.2-1.5,3.5c0,1.3,0.5,2.6,1.5,3.5c0.9,0.9,2.2,1.5,3.5,1.5
		c1.3,0,2.6-0.5,3.5-1.5c0.9-0.9,1.5-2.2,1.5-3.5c0-1.3-0.5-2.6-1.5-3.5C272.2,205.6,270.9,205.1,269.6,205.1z"/>
	<path class="st0" d="M295.1,205.1c-1.3,0-2.6,0.5-3.5,1.5s-1.5,2.2-1.5,3.5c0,1.3,0.5,2.6,1.5,3.5s2.2,1.5,3.5,1.5
		c1.3,0,2.6-0.5,3.5-1.5c0.9-0.9,1.5-2.2,1.5-3.5c0-1.3-0.5-2.6-1.5-3.5C297.7,205.6,296.4,205.1,295.1,205.1z"/>
	<path class="st0" d="M256.8,231.5c-1.3,0-2.6,0.5-3.5,1.5c-0.9,0.9-1.5,2.2-1.5,3.5c0,1.3,0.5,2.6,1.5,3.5s2.2,1.5,3.5,1.5
		c1.3,0,2.6-0.5,3.5-1.5c0.9-0.9,1.5-2.2,1.5-3.5c0-1.3-0.5-2.6-1.5-3.5C259.4,232.1,258.1,231.5,256.8,231.5z"/>
	<path class="st0" d="M282.3,231.5c-1.3,0-2.6,0.5-3.5,1.5c-0.9,0.9-1.5,2.2-1.5,3.5c0,1.3,0.5,2.6,1.5,3.5c0.9,0.9,2.2,1.5,3.5,1.5
		c1.3,0,2.6-0.5,3.5-1.5c0.9-0.9,1.5-2.2,1.5-3.5c0-1.3-0.5-2.6-1.5-3.5C284.9,232.1,283.6,231.5,282.3,231.5z"/>
	<path class="st0" d="M307.9,231.5c-1.3,0-2.6,0.5-3.5,1.5c-0.9,0.9-1.5,2.2-1.5,3.5c0,1.3,0.5,2.6,1.5,3.5s2.2,1.5,3.5,1.5
		c1.3,0,2.6-0.5,3.5-1.5c0.9-0.9,1.5-2.2,1.5-3.5c0-1.3-0.5-2.6-1.5-3.5C310.5,232.1,309.2,231.5,307.9,231.5z"/>
	<path class="st0" d="M244.1,258c-1.3,0-2.6,0.5-3.5,1.5c-0.9,0.9-1.5,2.2-1.5,3.5c0,1.3,0.5,2.6,1.5,3.5c0.9,0.9,2.2,1.5,3.5,1.5
		c1.3,0,2.6-0.5,3.5-1.5c0.9-0.9,1.5-2.2,1.5-3.5c0-1.3-0.5-2.6-1.5-3.5C246.7,258.5,245.4,258,244.1,258z"/>
	<path class="st0" d="M269.6,258c-1.3,0-2.6,0.5-3.5,1.5c-0.9,0.9-1.5,2.2-1.5,3.5c0,1.3,0.5,2.6,1.5,3.5c0.9,0.9,2.2,1.5,3.5,1.5
		s2.6-0.5,3.5-1.5c0.9-0.9,1.5-2.2,1.5-3.5c0-1.3-0.5-2.6-1.5-3.5C272.2,258.5,270.9,258,269.6,258z"/>
	<path class="st0" d="M295.1,258c-1.3,0-2.6,0.5-3.5,1.5c-0.9,0.9-1.5,2.2-1.5,3.5c0,1.3,0.5,2.6,1.5,3.5c0.9,0.9,2.2,1.5,3.5,1.5
		c1.3,0,2.6-0.5,3.5-1.5c0.9-0.9,1.5-2.2,1.5-3.5c0-1.3-0.5-2.6-1.5-3.5C297.7,258.5,296.4,258,295.1,258z"/>
	<path class="st0" d="M205.8,284.4c-1.3,0-2.6,0.5-3.5,1.5c-0.9,0.9-1.5,2.2-1.5,3.5c0,1.3,0.5,2.6,1.5,3.5c0.9,0.9,2.2,1.5,3.5,1.5
		c1.3,0,2.6-0.5,3.5-1.5c0.9-0.9,1.5-2.2,1.5-3.5c0-1.3-0.5-2.6-1.5-3.5C208.4,285,207.1,284.4,205.8,284.4z"/>
	<path class="st0" d="M231.3,284.4c-1.3,0-2.6,0.5-3.5,1.5c-0.9,0.9-1.5,2.2-1.5,3.5c0,1.3,0.5,2.6,1.5,3.5c0.9,0.9,2.2,1.5,3.5,1.5
		c1.3,0,2.6-0.5,3.5-1.5c0.9-0.9,1.5-2.2,1.5-3.5c0-1.3-0.5-2.6-1.5-3.5C233.9,285,232.6,284.4,231.3,284.4z"/>
	<path class="st0" d="M256.8,284.4c-1.3,0-2.6,0.5-3.5,1.5c-0.9,0.9-1.5,2.2-1.5,3.5c0,1.3,0.5,2.6,1.5,3.5c0.9,0.9,2.2,1.5,3.5,1.5
		c1.3,0,2.6-0.5,3.5-1.5c0.9-0.9,1.5-2.2,1.5-3.5c0-1.3-0.5-2.6-1.5-3.5C259.4,285,258.1,284.4,256.8,284.4z"/>
	<path class="st0" d="M282.3,284.4c-1.3,0-2.6,0.5-3.5,1.5c-0.9,0.9-1.5,2.2-1.5,3.5c0,1.3,0.5,2.6,1.5,3.5c0.9,0.9,2.2,1.5,3.5,1.5
		c1.3,0,2.6-0.5,3.5-1.5c0.9-0.9,1.5-2.2,1.5-3.5c0-1.3-0.5-2.6-1.5-3.5C284.9,285,283.6,284.4,282.3,284.4z"/>
	<path class="st0" d="M218.5,310.9c-1.3,0-2.6,0.5-3.5,1.5c-0.9,0.9-1.5,2.2-1.5,3.5c0,1.3,0.5,2.6,1.5,3.5c0.9,0.9,2.2,1.5,3.5,1.5
		c1.3,0,2.6-0.5,3.5-1.5c0.9-0.9,1.5-2.2,1.5-3.5c0-1.3-0.5-2.6-1.5-3.5C221.1,311.4,219.8,310.9,218.5,310.9z"/>
	<path class="st0" d="M244.1,310.9c-1.3,0-2.6,0.5-3.5,1.5c-0.9,0.9-1.5,2.2-1.5,3.5c0,1.3,0.5,2.6,1.5,3.5c0.9,0.9,2.2,1.5,3.5,1.5
		c1.3,0,2.6-0.5,3.5-1.5c0.9-0.9,1.5-2.2,1.5-3.5c0-1.3-0.5-2.6-1.5-3.5C246.7,311.4,245.4,310.9,244.1,310.9z"/>
</g>
</svg>
