<?xml version="1.0" encoding="utf-8"?>
<!-- Generator: Adobe Illustrator 25.0.0, SVG Export Plug-In . SVG Version: 6.00 Build 0)  -->
<svg version="1.1" id="Layer_1" xmlns="http://www.w3.org/2000/svg" xmlns:xlink="http://www.w3.org/1999/xlink" x="0px" y="0px"
	 viewBox="0 0 283.46 85.04" style="enable-background:new 0 0 283.46 85.04;" xml:space="preserve">
<style type="text/css">
	.st0{fill:#48ADB3;}
</style>
<path class="st0" d="M173.28,57.86c-0.3-3.04,0.66-5.32,3.08-6.64c1.73-0.95,3.57-1.08,5.27-0.63c3.67,0.99,5.3,5.28,3.21,8.46
	c-2.56,3.88-7.91,6.6-10.92,9.73c0,0-0.43,0.58-0.92,0.04c-3.17-3.5-14.43-6.44-12.51-12.75c1.47-4.84,6.02-4.48,8.56-2.92
	c2.28,1.4,3.33,3.31,4.22,4.78"/>
<g>
	<path d="M16.2,52.59c0.91,0.22,1.34,0.77,1.31,1.64c-0.02,0.87-0.22,1.69-0.61,2.45c-0.37,0.76-0.93,1.64-1.67,2.64
		c-0.54,0.71-1.03,1.32-1.49,1.84c-0.45,0.52-0.79,0.87-1.02,1.06l-0.7-0.7c0.19-0.33,0.38-0.64,0.57-0.93
		c0.19-0.29,0.38-0.58,0.57-0.88c0.41-0.54,0.73-0.97,0.96-1.29c0.23-0.32,0.42-0.71,0.57-1.15c0.19-0.65,0.28-1.18,0.29-1.6
		c0.01-0.42,0.02-0.78,0.04-1.1c0.02-0.32,0.1-0.62,0.25-0.92C15.43,53.36,15.74,53,16.2,52.59z"/>
	<path d="M32.89,63.13c-0.46,1.06-1.08,1.97-1.84,2.75c-0.76,0.78-1.58,1.42-2.46,1.93c-0.88,0.51-1.78,0.89-2.68,1.14
		c-0.91,0.25-1.75,0.38-2.53,0.38c-0.48,0-0.89,0-1.21,0.01c-0.32,0.01-0.64-0.01-0.96-0.06c-0.32-0.05-0.66-0.12-1.04-0.24
		c-0.38-0.11-0.87-0.29-1.46-0.53c-0.65-0.22-1.11-0.64-1.39-1.25c-0.26-0.63-0.43-1.08-0.5-1.36c0.04-0.67,0.16-1.24,0.38-1.72
		c0.21-0.48,0.49-0.91,0.82-1.29c0.33-0.38,0.71-0.73,1.13-1.06c0.42-0.32,0.84-0.65,1.27-0.99l1.36-0.69
		c0.33-0.2,0.7-0.3,1.08-0.29c0.39,0.01,0.78,0.07,1.17,0.19c0.39,0.12,0.77,0.28,1.13,0.49c0.36,0.2,0.68,0.4,0.96,0.58
		c0.07,1.61-0.33,2.88-1.22,3.81c-0.87,0.91-1.98,1.45-3.34,1.61c-0.46,0.3-0.43,0.56,0.11,0.78c0.89,0.2,1.78,0.23,2.68,0.07
		c0.9-0.16,1.69-0.33,2.38-0.51c0.76-0.2,1.56-0.58,2.39-1.11c0.87-0.56,1.48-1.09,1.84-1.61c0.54-0.91,0.81-1.89,0.82-2.95
		s-0.24-2.03-0.74-2.91c-0.5-0.88-1.25-1.61-2.24-2.18c-0.99-0.58-2.21-0.84-3.66-0.81c-0.89,0.32-1.6,0.62-2.14,0.92
		c-0.26,0.15-0.56,0.34-0.89,0.58c-0.33,0.24-0.69,0.52-1.06,0.83l-0.42-1.03c0.39-0.82,0.86-1.38,1.42-1.7
		c0.3-0.15,0.61-0.32,0.95-0.51c0.33-0.19,0.69-0.4,1.06-0.63c0.26-0.15,0.58-0.26,0.96-0.35c0.38-0.08,0.76-0.14,1.15-0.18
		c0.2-0.02,0.42-0.03,0.64-0.04c0.22-0.01,0.46-0.01,0.72-0.01c0.91,0.02,1.79,0.32,2.64,0.89s1.57,1.33,2.14,2.27
		c0.57,0.94,0.94,1.99,1.1,3.17C33.56,60.71,33.39,61.91,32.89,63.13z M24.1,62.66c-0.26-0.3-0.52-0.5-0.79-0.61
		c-0.27-0.11-0.69-0.17-1.27-0.17c-0.33,0.19-0.74,0.44-1.21,0.75c-0.47,0.32-0.88,0.67-1.22,1.06c-0.34,0.39-0.55,0.81-0.63,1.27
		s0.11,0.9,0.56,1.35c0.44,0.24,0.87,0.32,1.28,0.22c0.41-0.09,0.79-0.28,1.15-0.56c0.36-0.28,0.7-0.61,1.03-1
		c0.32-0.39,0.63-0.76,0.93-1.11C24.19,63.49,24.25,63.09,24.1,62.66z"/>
	<path d="M47.1,59.71c-0.33-1.39-0.97-2.33-1.92-2.81c-1.39-0.48-3.02-0.32-4.89,0.47c-0.46,0.22-0.78,0.43-0.95,0.63
		c-0.17,0.19-0.31,0.38-0.43,0.57c-0.12,0.18-0.26,0.38-0.43,0.57c-0.17,0.2-0.48,0.4-0.95,0.63c-0.19-0.15-0.3-0.3-0.33-0.46
		c-0.04-0.16-0.07-0.38-0.11-0.68c0.19-0.56,0.39-1.02,0.63-1.39c0.23-0.37,0.49-0.68,0.78-0.93c0.29-0.25,0.61-0.47,0.96-0.65
		c0.35-0.18,0.74-0.37,1.17-0.56c0.39-0.17,0.75-0.29,1.07-0.36c0.32-0.07,0.63-0.14,0.93-0.2c0.3-0.06,0.6-0.12,0.9-0.19
		c0.31-0.07,0.63-0.2,0.96-0.39c1.59,0.22,2.73,0.79,3.39,1.7c0.65,0.87,0.99,1.87,1.03,3c0.02,1.11-0.2,2.25-0.67,3.42
		c-0.44,1.17-0.97,2.16-1.58,2.98c-0.59,0.76-1.21,1.34-1.84,1.75c-0.32,0.2-0.69,0.42-1.11,0.65c-0.43,0.23-0.91,0.48-1.45,0.74
		c-0.3,0.11-0.52,0.15-0.67,0.11c-0.07-0.07-0.12-0.17-0.14-0.28c-0.02-0.11-0.01-0.29,0.03-0.53c0.35-0.89,0.84-1.57,1.47-2.03
		l1.75-1.31c0.57-0.41,1.08-0.94,1.53-1.58C46.7,61.95,46.99,60.99,47.1,59.71z"/>
	<path d="M62.98,58.24c-0.07,0.3-0.17,0.56-0.29,0.79c-0.12,0.23-0.22,0.42-0.29,0.57c-0.41,0.41-1.03,0.72-1.86,0.93
		c-0.83,0.21-1.73,0.39-2.7,0.54c-0.54,0.09-1.07,0.2-1.6,0.33c-0.53,0.13-1.05,0.29-1.57,0.47c-1,0.33-1.69,0.83-2.06,1.47
		c-0.11,0.19-0.19,0.41-0.25,0.68s-0.12,0.5-0.19,0.68c0,0.59,0.23,0.98,0.7,1.17c0.24,0.09,0.47,0.19,0.68,0.31
		c0.21,0.11,0.41,0.21,0.6,0.31c0.57,0.19,1.14,0.22,1.71,0.1c0.57-0.12,1.11-0.3,1.63-0.54c0.52-0.24,1-0.5,1.45-0.79
		s0.82-0.5,1.14-0.65c0.28-0.19,0.51-0.35,0.7-0.49c0.19-0.14,0.28-0.05,0.28,0.26c0,0.07-0.01,0.16-0.03,0.25
		c-0.02,0.09-0.03,0.18-0.03,0.25c-0.26,0.32-0.63,0.73-1.11,1.24c-0.48,0.51-1.04,1.01-1.67,1.49c-0.63,0.48-1.31,0.88-2.03,1.21
		c-0.72,0.32-1.46,0.46-2.2,0.4c-0.22-0.07-0.47-0.16-0.75-0.26c-0.28-0.1-0.55-0.22-0.82-0.35c-0.27-0.13-0.52-0.27-0.75-0.43
		c-0.23-0.16-0.42-0.34-0.57-0.54c-0.43-0.43-0.67-0.85-0.72-1.26s-0.08-0.89-0.08-1.43c0-0.56,0.11-1.19,0.33-1.89
		c0.26-0.72,0.58-1.25,0.97-1.58c0.61-0.52,1.36-0.96,2.24-1.32c0.88-0.36,1.77-0.7,2.66-1.01c0.41-0.15,0.84-0.29,1.31-0.42
		s0.89-0.27,1.28-0.43c0.39-0.16,0.7-0.33,0.93-0.51c0.23-0.19,0.31-0.41,0.24-0.67c-0.2-0.93-0.54-1.67-1-2.22l-1.33-1.61
		c-0.22-0.26-0.43-0.51-0.61-0.76c-0.19-0.25-0.32-0.52-0.39-0.82c0.15-0.22,0.28-0.45,0.39-0.68s0.24-0.48,0.39-0.74
		c0.57,0.22,1.28,0.84,2.11,1.86c0.37,0.48,0.73,1.01,1.08,1.57c0.35,0.57,0.68,1.13,0.97,1.68c0.3,0.56,0.54,1.09,0.74,1.6
		C62.77,57.49,62.9,57.91,62.98,58.24z"/>
	<path d="M93.04,64.66c-0.32,0.24-0.66,0.46-1.03,0.65c-0.37,0.19-0.76,0.38-1.17,0.54c-0.82,0.33-1.51,0.35-2.09,0.06
		c-0.48-0.19-0.92-0.4-1.32-0.65c-0.4-0.25-0.77-0.48-1.11-0.68c-0.34-0.2-0.66-0.37-0.95-0.49c-0.29-0.12-0.54-0.14-0.77-0.07
		c-0.22,0.06-0.53,0.2-0.93,0.44c-0.4,0.24-0.84,0.54-1.33,0.89c-0.49,0.35-1,0.73-1.53,1.14c-0.53,0.41-1.03,0.81-1.5,1.2
		c-0.47,0.39-0.89,0.75-1.24,1.08c-0.35,0.33-0.6,0.59-0.75,0.78h-0.64V68.7c0.61-0.91,1.16-1.72,1.64-2.43
		c0.48-0.71,1-1.37,1.56-1.97c0.56-0.6,1.19-1.15,1.9-1.65c0.71-0.5,1.62-0.98,2.71-1.45c0.7,0.11,1.41,0.49,2.11,1.14
		c0.35,0.32,0.73,0.61,1.13,0.88s0.81,0.5,1.24,0.71c0.69-0.07,1.3-0.23,1.84-0.47c0.54-0.24,1.05-0.71,1.53-1.39
		c-0.32-1.15-0.91-2.25-1.78-3.31c-0.91-1.11-2.22-1.87-3.92-2.28c-0.33-0.09-0.83-0.12-1.47-0.08c-0.69,0.04-1.25,0.16-1.7,0.36
		c-0.39,0.2-0.67,0.45-0.85,0.74s-0.36,0.57-0.54,0.86c-0.19,0.29-0.41,0.54-0.68,0.77c-0.27,0.22-0.68,0.37-1.24,0.44
		c-0.15-0.09-0.27-0.18-0.38-0.26c-0.1-0.08-0.17-0.14-0.21-0.18c-0.06-0.06-0.13-0.34-0.22-0.86c0.46-0.5,0.89-0.92,1.29-1.27
		c0.4-0.34,0.82-0.65,1.25-0.92c0.44-0.27,0.91-0.52,1.42-0.76c0.51-0.24,1.11-0.52,1.79-0.83c1.58-0.33,3-0.29,4.28,0.14
		c0.59,0.22,1.33,0.72,2.22,1.5c0.46,0.39,0.88,0.81,1.24,1.25c0.36,0.44,0.69,0.91,0.99,1.39c0.59,0.98,0.89,2.01,0.89,3.09
		C94.73,62.88,94.17,63.83,93.04,64.66z"/>
	<path d="M104.47,51.79c0.07,0.46,0.14,0.83,0.19,1.08s0.09,0.49,0.1,0.68c0.01,0.2-0.01,0.38-0.06,0.54
		c-0.05,0.17-0.12,0.39-0.24,0.67c-0.85,0.24-1.51,0.75-1.97,1.53c-0.2,0.37-0.44,0.82-0.7,1.35s-0.55,1.13-0.86,1.79
		c-0.3,0.69-0.55,1.26-0.76,1.71c-0.21,0.46-0.42,0.88-0.63,1.27s-0.42,0.77-0.65,1.14c-0.23,0.37-0.51,0.82-0.85,1.33
		c-0.32,0.45-0.64,0.89-0.96,1.33c-0.32,0.45-0.63,0.84-0.9,1.2c-0.28,0.35-0.52,0.63-0.74,0.85s-0.36,0.32-0.43,0.32
		c-0.06-0.13-0.1-0.22-0.12-0.28s-0.03-0.07-0.01-0.03s0.01,0.04-0.03,0s-0.09-0.1-0.17-0.19c0.26-0.57,0.53-1.15,0.82-1.74
		s0.58-1.14,0.88-1.68c0.39-0.72,0.71-1.31,0.96-1.77c0.25-0.45,0.48-0.88,0.7-1.29c0.21-0.41,0.43-0.83,0.65-1.28
		c0.22-0.44,0.5-1.01,0.83-1.7c0.32-0.74,0.63-1.44,0.93-2.08c0.31-0.65,0.6-1.25,0.88-1.81c0.57-1.11,1.38-2.26,2.42-3.45
		C104.19,51.14,104.43,51.31,104.47,51.79z"/>
	<path d="M124.68,52.93c-0.45,0.63-1.09,1.22-1.95,1.77c-0.85,0.55-1.81,1.04-2.88,1.49c-1.07,0.45-2.18,0.85-3.35,1.21
		s-2.3,0.68-3.39,0.96c-0.37,0.22-0.55,0.36-0.55,0.42s0.07,0.08,0.22,0.08c1.17,0.19,2.01,0.63,2.53,1.32s0.74,1.63,0.67,2.79
		c-0.24,0.87-0.59,1.53-1.06,1.97c-0.46,0.45-1.04,0.81-1.72,1.08s-1.47,0.54-2.36,0.78c-0.89,0.24-1.87,0.59-2.95,1.06
		c-0.39,0.15-0.87,0.28-1.45,0.4s-1.19,0.23-1.83,0.33c-0.65,0.1-1.3,0.18-1.96,0.25c-0.66,0.06-1.25,0.12-1.77,0.15
		c-0.15-0.2-0.26-0.38-0.35-0.53c-0.08-0.15-0.2-0.33-0.35-0.56c-0.22-0.76,0.12-1.2,1.03-1.31c0.54,0.04,1.12,0.05,1.74,0.03
		c0.62-0.02,1.29-0.06,2.02-0.14c0.72-0.09,1.42-0.2,2.1-0.32c0.68-0.12,1.33-0.25,1.96-0.4c1.3-0.32,2.37-0.71,3.23-1.17
		c0.87-0.46,1.27-0.96,1.2-1.47c0.2-0.72,0.13-1.32-0.21-1.78c-0.34-0.46-0.83-0.81-1.46-1.04c-0.63-0.23-1.34-0.36-2.14-0.39
		c-0.8-0.03-1.54,0.03-2.22,0.18c-1.74,0.35-2.56,0.11-2.45-0.72c0.04-0.13,0.1-0.33,0.18-0.61s0.14-0.45,0.18-0.53l0.5-0.86
		c0.8-0.02,1.73-0.12,2.79-0.29c1.07-0.18,2.19-0.41,3.37-0.71c1.18-0.3,2.36-0.65,3.56-1.06s2.33-0.87,3.41-1.39
		c1.08-0.52,2.04-1.11,2.88-1.77s1.5-1.38,1.96-2.17c0.46-0.79,0.7-1.64,0.7-2.54s-0.32-1.87-0.95-2.89
		c-0.39-0.61-0.8-1.12-1.22-1.52c-0.43-0.4-0.89-0.72-1.39-0.96c-0.5-0.24-1.05-0.41-1.64-0.51s-1.24-0.15-1.95-0.15
		c-0.65,0-1.28,0.15-1.89,0.45c-0.65,0.28-1.39,0.97-2.22,2.09c-0.31,0.39-0.56,0.79-0.75,1.21s-0.35,0.82-0.49,1.21
		c-0.14,0.39-0.28,0.76-0.43,1.11c-0.15,0.35-0.33,0.67-0.56,0.95l-0.61-0.45c0-1.11,0.14-2.13,0.43-3.06
		c0.29-0.93,0.64-1.75,1.06-2.48c0.42-0.72,0.87-1.33,1.35-1.82c0.48-0.49,0.92-0.85,1.31-1.07c0.32-0.15,0.57-0.26,0.75-0.35
		s0.35-0.14,0.49-0.18s0.26-0.07,0.38-0.11s0.26-0.09,0.45-0.17c1.37,0,2.55,0.16,3.53,0.47c0.95,0.32,1.92,0.84,2.92,1.58
		c1.11,0.95,1.98,2.04,2.6,3.27c0.62,1.23,0.9,2.55,0.85,3.96C126.4,49.78,125.79,51.41,124.68,52.93z"/>
	<path d="M127.1,52.59c0.91,0.22,1.34,0.77,1.31,1.64c-0.02,0.87-0.22,1.69-0.61,2.45c-0.37,0.76-0.93,1.64-1.67,2.64
		c-0.54,0.71-1.03,1.32-1.49,1.84c-0.45,0.52-0.79,0.87-1.01,1.06l-0.7-0.7c0.18-0.33,0.38-0.64,0.57-0.93
		c0.2-0.29,0.38-0.58,0.57-0.88c0.41-0.54,0.73-0.97,0.96-1.29c0.23-0.32,0.42-0.71,0.57-1.15c0.19-0.65,0.28-1.18,0.29-1.6
		c0.01-0.42,0.02-0.78,0.04-1.1s0.1-0.62,0.25-0.92C126.33,53.36,126.64,53,127.1,52.59z"/>
	<path d="M146.59,49.67c-0.22,0.46-0.42,0.81-0.6,1.03c-0.18,0.22-0.38,0.42-0.6,0.6c-0.22,0.18-0.48,0.37-0.76,0.58
		s-0.65,0.54-1.1,0.99c-0.35,0.35-0.75,0.73-1.18,1.13s-0.87,0.81-1.31,1.22s-0.83,0.84-1.2,1.28c-0.36,0.44-0.64,0.86-0.82,1.27
		c-0.04,0.37-0.09,0.77-0.15,1.2c-0.07,0.43-0.14,0.86-0.24,1.29c-0.09,0.44-0.2,0.86-0.32,1.28c-0.12,0.42-0.25,0.79-0.38,1.13
		c-0.13,0.48-0.29,0.92-0.47,1.31c-0.07,0.19-0.19,0.41-0.35,0.67c-0.16,0.26-0.36,0.58-0.6,0.95c-0.35,0.37-0.64,0.59-0.86,0.67
		s-0.39,0.09-0.5,0.06c0.46-0.85,0.82-1.67,1.07-2.46c0.25-0.79,0.44-1.48,0.56-2.09c0.12-0.6,0.18-1.1,0.18-1.49
		c0-0.39-0.02-0.63-0.06-0.72c-0.65,0.76-1.33,1.53-2.03,2.32c-0.71,0.79-1.34,1.56-1.91,2.31s-1.02,1.46-1.36,2.14
		c-0.34,0.68-0.48,1.28-0.4,1.82c0.43,0.61,0.98,0.71,1.67,0.31c0.67-0.37,1.33-0.91,1.97-1.61l0.36,0.17
		c-0.07,0.28-0.11,0.51-0.11,0.69c-0.5,0.52-1.06,1.07-1.67,1.64c-0.61,0.58-1.22,0.98-1.83,1.22c-0.59,0.24-1.17,0.24-1.72,0
		c-0.56-0.24-1-0.88-1.33-1.92c0.24-0.72,0.51-1.4,0.82-2.02c0.31-0.62,0.63-1.21,0.97-1.75c0.34-0.55,0.7-1.07,1.08-1.56
		c0.38-0.49,0.78-0.99,1.21-1.49c0.57-0.65,1.16-1.32,1.75-2c0.59-0.69,1.21-1.45,1.84-2.28c0-0.3-0.05-0.5-0.14-0.6
		s-0.34-0.15-0.75-0.15c-0.5,0.15-0.98,0.35-1.43,0.6c-0.46,0.25-0.89,0.54-1.32,0.88c-0.43,0.33-0.85,0.69-1.26,1.06
		c-0.42,0.37-0.83,0.74-1.24,1.11c-0.33,0.32-0.56,0.49-0.68,0.53c-0.12,0.04-0.17-0.02-0.14-0.17c0.03-0.15,0.11-0.37,0.24-0.67
		c0.13-0.3,0.29-0.63,0.47-1c0.22-0.5,0.58-1.03,1.08-1.58c0.5-0.56,1.06-1.07,1.68-1.54c0.62-0.47,1.26-0.86,1.93-1.15
		c0.67-0.3,1.29-0.43,1.86-0.39c0.33,0.04,0.67,0.12,1.01,0.26c0.34,0.14,0.61,0.43,0.79,0.88c0.61-0.67,1.2-1.35,1.77-2.06
		c0.57-0.7,1.12-1.38,1.67-2.03c0.55-0.65,1.08-1.24,1.61-1.77c0.53-0.53,1.05-0.95,1.57-1.26c0.63-0.26,1.09-0.22,1.39,0.11
		C146.64,48.91,146.72,49.27,146.59,49.67z"/>
</g>
<g>
	<g>
		<path d="M248.49,9.03c-0.13,0.13-0.21,0.23-0.24,0.31c-0.03,0.08-0.11,0.18-0.24,0.31c-0.45-0.06-0.85-0.11-1.2-0.14
			c-0.35-0.03-0.64-0.06-0.86-0.1c-0.22-0.03-0.5-0.05-0.82-0.05c-0.32,0-0.7,0-1.15,0c-0.64,0-1.21,0-1.7,0
			c-0.5,0-1.02,0.05-1.58,0.14c-0.56,0.1-1.21,0.26-1.94,0.5c-0.74,0.24-1.65,0.6-2.73,1.08c-1.92,0.93-3.59,2.06-5.01,3.41
			c-1.42,1.34-2.73,2.89-3.93,4.65c-1.2,1.76-2.34,3.73-3.43,5.92c-1.09,2.19-2.22,4.58-3.41,7.17c-0.26,0.42-0.54,0.94-0.84,1.58
			c-0.3,0.64-0.64,1.35-1.01,2.13c-0.37,0.78-0.75,1.62-1.15,2.49c-0.4,0.88-0.81,1.75-1.22,2.61c-0.38,0.86-0.78,1.72-1.17,2.57
			c-0.4,0.85-0.77,1.64-1.1,2.37c-0.33,0.74-0.64,1.39-0.91,1.97c-0.27,0.58-0.49,1.02-0.65,1.34c-0.35,0.74-0.86,1.67-1.51,2.81
			c-0.66,1.14-1.34,2.31-2.04,3.53c-0.67,1.22-1.33,2.42-1.99,3.6c-0.66,1.18-1.17,2.1-1.56,2.73c-0.58,1.44-1.14,2.86-1.7,4.27
			s-1.14,2.83-1.75,4.27c-0.45,0.77-1.15,1.46-2.11,2.06c-0.9,0.61-1.79,0.78-2.69,0.53l-1.49-1.2c-0.51-0.51-0.77-1.14-0.77-1.89
			c0-0.75,0.26-1.43,0.77-2.04c2.17-1.63,4.15-3.64,5.92-6.02s3.42-4.96,4.94-7.75c1.52-2.78,2.97-5.68,4.34-8.71
			c1.38-3.02,2.73-5.97,4.08-8.85c1.34-2.78,2.64-5.53,3.88-8.25c1.25-2.72,2.54-5.08,3.89-7.1c0.64-1.02,1.35-2.11,2.13-3.26
			c0.78-1.15,1.62-2.29,2.52-3.41c0.9-1.12,1.83-2.17,2.81-3.14c0.97-0.98,1.99-1.8,3.05-2.47c0.89-0.58,1.58-1,2.06-1.27
			c0.48-0.27,0.91-0.49,1.29-0.65c0.38-0.16,0.79-0.32,1.22-0.48c0.43-0.16,1.06-0.43,1.89-0.82c0.8-0.22,1.65-0.41,2.54-0.55
			c0.89-0.14,1.77-0.14,2.61,0c0.85,0.14,1.62,0.5,2.33,1.08C247.56,6.92,248.1,7.82,248.49,9.03z"/>
		<path d="M265.85,9.03c-0.13,0.13-0.21,0.23-0.24,0.31c-0.03,0.08-0.11,0.18-0.24,0.31c-0.45-0.06-0.85-0.11-1.2-0.14
			c-0.35-0.03-0.64-0.06-0.86-0.1c-0.22-0.03-0.5-0.05-0.82-0.05c-0.32,0-0.7,0-1.15,0c-0.64,0-1.21,0-1.7,0
			c-0.5,0-1.02,0.05-1.58,0.14c-0.56,0.1-1.21,0.26-1.94,0.5c-0.74,0.24-1.65,0.6-2.73,1.08c-1.92,0.93-3.59,2.06-5.01,3.41
			c-1.42,1.34-2.73,2.89-3.93,4.65c-1.2,1.76-2.34,3.73-3.43,5.92c-1.09,2.19-2.22,4.58-3.41,7.17c-0.26,0.42-0.54,0.94-0.84,1.58
			c-0.3,0.64-0.64,1.35-1.01,2.13c-0.37,0.78-0.75,1.62-1.15,2.49c-0.4,0.88-0.81,1.75-1.22,2.61c-0.38,0.86-0.78,1.72-1.17,2.57
			c-0.4,0.85-0.77,1.64-1.1,2.37c-0.33,0.74-0.64,1.39-0.91,1.97c-0.27,0.58-0.49,1.02-0.65,1.34c-0.35,0.74-0.86,1.67-1.51,2.81
			c-0.66,1.14-1.34,2.31-2.04,3.53c-0.67,1.22-1.33,2.42-1.99,3.6c-0.66,1.18-1.17,2.1-1.56,2.73c-0.58,1.44-1.14,2.86-1.7,4.27
			s-1.14,2.83-1.75,4.27c-0.45,0.77-1.15,1.46-2.11,2.06c-0.9,0.61-1.79,0.78-2.69,0.53l-1.49-1.2c-0.51-0.51-0.77-1.14-0.77-1.89
			c0-0.75,0.26-1.43,0.77-2.04c2.17-1.63,4.15-3.64,5.92-6.02s3.42-4.96,4.94-7.75c1.52-2.78,2.97-5.68,4.34-8.71
			c1.38-3.02,2.73-5.97,4.08-8.85c1.34-2.78,2.64-5.53,3.88-8.25c1.25-2.72,2.54-5.08,3.89-7.1c0.64-1.02,1.35-2.11,2.13-3.26
			c0.78-1.15,1.62-2.29,2.52-3.41c0.9-1.12,1.83-2.17,2.81-3.14c0.97-0.98,1.99-1.8,3.05-2.47c0.89-0.58,1.58-1,2.06-1.27
			c0.48-0.27,0.91-0.49,1.29-0.65c0.38-0.16,0.79-0.32,1.22-0.48c0.43-0.16,1.06-0.43,1.89-0.82c0.8-0.22,1.65-0.41,2.54-0.55
			c0.89-0.14,1.77-0.14,2.61,0c0.85,0.14,1.62,0.5,2.33,1.08C264.92,6.92,265.47,7.82,265.85,9.03z"/>
		<path d="M245.99,61.89c-0.74,1.79-1.53,3.32-2.38,4.58s-1.77,2.4-2.78,3.41c-1.01,1.01-2.13,1.94-3.36,2.78
			c-1.23,0.85-2.61,1.75-4.15,2.71c-1.12,0-1.39-0.56-0.82-1.68c1.57-1.06,2.78-2.09,3.65-3.09c0.86-1.01,1.59-2.05,2.18-3.14
			c0.59-1.09,1.18-2.24,1.77-3.45c0.59-1.21,1.4-2.54,2.42-3.98c1.02-0.45,1.87-0.42,2.54,0.1
			C245.82,60.63,246.12,61.22,245.99,61.89z M260.91,55.13c-1.25-1.12-2.45-1.94-3.62-2.47c-1.17-0.53-2.61-0.76-4.34-0.7
			c-1.5,0.06-2.93,0.2-4.29,0.41c-1.36,0.21-2.67,0.52-3.93,0.94c-1.26,0.42-2.49,0.94-3.67,1.58c-1.18,0.64-2.35,1.44-3.5,2.4
			c-0.61,0.45-1.03,0.81-1.27,1.08c-0.24,0.27-0.4,0.5-0.48,0.7s-0.1,0.39-0.07,0.6c0.03,0.21,0.02,0.46-0.05,0.74
			c-0.13,0.74-0.44,1.29-0.94,1.66c-0.5,0.37-1,0.47-1.51,0.31c-0.26-0.32-0.46-0.59-0.6-0.82c-0.14-0.22-0.15-0.61-0.02-1.15
			c0.1-0.77,0.38-1.54,0.86-2.33c0.48-0.78,1.12-1.57,1.92-2.37c1.69-1.5,3.36-2.69,4.99-3.57c1.63-0.88,3.31-1.62,5.04-2.23
			c0.83-0.25,1.58-0.45,2.23-0.58s1.27-0.26,1.85-0.41c0.58-0.14,1.12-0.33,1.63-0.55s1.06-0.56,1.63-1.01
			c2.88-0.13,5.21,0.19,7,0.96c1.79,0.77,3.13,1.82,4.03,3.17c0.9,1.34,1.41,2.88,1.54,4.61c0.13,1.73-0.05,3.47-0.53,5.23
			s-1.19,3.46-2.13,5.11c-0.94,1.65-2.04,3.04-3.29,4.2c-0.45,0.38-1.08,0.83-1.9,1.34s-1.68,0.93-2.59,1.27s-1.79,0.51-2.64,0.53
			c-0.85,0.02-1.53-0.26-2.04-0.84c0.19-0.29,0.39-0.54,0.6-0.77s0.41-0.43,0.6-0.62c2.01-0.51,3.77-1.33,5.28-2.47
			c1.5-1.13,2.68-2.45,3.53-3.93c0.85-1.49,1.34-3.09,1.49-4.82C261.85,58.58,261.58,56.86,260.91,55.13z"/>
	</g>
</g>
<g>
	<path d="M170.9,57.87c-0.39-1.57-0.42-3.39,0.46-5c0.41-0.81,1.05-1.49,1.78-2.03c0.72-0.54,1.53-0.95,2.41-1.21
		c1.77-0.51,3.67-0.43,5.42,0.42c1.74,0.84,3.01,2.54,3.37,4.4c0.39,1.87-0.24,3.84-1.36,5.18c-1.08,1.32-2.35,2.37-3.6,3.4
		c-2.51,2.02-5.19,3.91-7.19,6.26l0.06-0.07c-0.15,0.19-0.24,0.28-0.43,0.4c-0.17,0.11-0.41,0.2-0.68,0.2
		c-0.56,0-0.93-0.4-1.05-0.51c-0.25-0.22-0.52-0.44-0.82-0.63c-0.59-0.4-1.24-0.78-1.91-1.13c-1.33-0.73-2.71-1.43-4.09-2.22
		c-1.38-0.79-2.77-1.63-4.05-2.79c-0.64-0.58-1.23-1.27-1.71-2.09c-0.47-0.82-0.81-1.82-0.79-2.84c-0.01-1.02,0.28-1.97,0.63-2.78
		c0.36-0.83,0.9-1.65,1.63-2.29c0.73-0.65,1.63-1.11,2.56-1.31c0.93-0.2,1.86-0.17,2.73,0.01c1.75,0.33,3.28,1.33,4.39,2.53
		c1.14,1.22,1.87,2.68,2.47,4.11c0.03,0.06,0,0.14-0.07,0.16c-0.05,0.02-0.11,0.01-0.15-0.04c-0.5-0.61-0.96-1.23-1.47-1.79
		c-0.51-0.57-1.06-1.06-1.64-1.51c-0.58-0.43-1.23-0.81-1.85-1.08c-0.64-0.26-1.32-0.42-1.98-0.48c-1.34-0.12-2.58,0.27-3.37,1.12
		c-0.4,0.42-0.71,0.95-0.94,1.55c-0.24,0.63-0.36,1.2-0.34,1.74c0.02,1.07,0.68,2.14,1.68,3.1c0.97,0.98,2.21,1.84,3.48,2.66
		c1.28,0.82,2.62,1.6,3.95,2.49c0.65,0.46,1.32,0.92,1.94,1.49c0.31,0.28,0.62,0.59,0.9,0.93c0.14,0.17,0.07,0.06-0.08,0.07
		c-0.08,0-0.13,0.03-0.13,0.05c-0.01,0.02,0.03-0.02,0.01,0.02l0.06-0.07c1.26-1.12,2.61-2.03,3.93-2.95
		c1.32-0.92,2.63-1.84,3.81-2.9c1.2-1.03,2.27-2.23,3.02-3.55c0.75-1.25,0.88-2.7,0.47-3.96c-0.38-1.26-1.26-2.31-2.39-2.93
		c-0.55-0.31-1.22-0.5-1.9-0.58c-0.68-0.09-1.37-0.08-2.05,0.06c-1.36,0.29-2.69,0.98-3.55,2.09c-0.88,1.12-1.23,2.68-1.32,4.27
		c0,0.07-0.06,0.12-0.13,0.12C170.96,57.96,170.91,57.92,170.9,57.87z"/>
</g>
</svg>
